<?xml version="1.0" encoding="utf-8"?>
<!-- Generator: Adobe Illustrator 21.1.0, SVG Export Plug-In . SVG Version: 6.00 Build 0)  -->
<svg version="1.1" id="Слой_1" xmlns="http://www.w3.org/2000/svg" xmlns:xlink="http://www.w3.org/1999/xlink" x="0px" y="0px"
	 viewBox="0 0 400 200" style="enable-background:new 0 0 400 200;" xml:space="preserve">
<g>
	<path d="M64.2,105.7c0,0.3,0,0.5,0,0.8c0,16.5,0,33,0,49.5c0,3.6,0.2,7.3,0.3,10.9c0,1.1,0.2,2.2,0.4,3.3c0.4,1.7,1.3,2.5,3.1,2.7
		c1.2,0.1,2.5,0.2,3.7,0.3c0.2,0,0.4,0,0.5,0.1c0.4,0.1,0.6,0.4,0.6,0.7c0,0.3-0.1,0.6-0.4,0.8c-0.4,0.1-0.8,0.3-1.2,0.3
		c-2.2,0-4.4,0-6.6-0.1c-3-0.1-6-0.1-9,0c-1.5,0.1-3.1,0.1-4.6,0.1c-0.3,0-0.5,0-0.8-0.1c-0.5-0.1-0.7-0.5-0.7-1
		c0-0.5,0.3-0.7,0.9-0.8c0.8-0.1,1.6-0.2,2.4-0.3c1.1-0.1,1.8-0.7,2-1.7c0.3-1.1,0.6-2.2,0.7-3.3c0.2-2.5,0.3-4.9,0.3-7.4
		c0.1-18,0.1-36,0.1-54c0-0.2,0-0.5,0-0.7c-0.2,0-0.4-0.1-0.6-0.1c-4.7,0.1-9.5,0.1-14.2,0.3c-1.2,0-2.5,0.2-3.7,0.5
		c-1.5,0.3-2.7,1.1-3.5,2.5c-0.5,0.8-0.9,1.7-1.3,2.5c-0.1,0.3-0.3,0.6-0.5,0.8c-0.5,0.5-1.3,0.3-1.4-0.5c0-0.3,0-0.7,0-1.1
		c0.6-2.9,1.2-5.7,1.9-8.6c0.1-0.5,0.3-0.9,0.5-1.4c0.3-0.7,0.6-0.8,1.3-0.5c1,0.4,2,0.8,3.1,0.9c1.1,0.1,2.2,0.2,3.4,0.3
		c1.6,0.1,3.2,0.2,4.8,0.2c103.4,0,206.9,0,310.3,0c2.9,0,5.8-0.2,8.6-0.8c0.1,0,0.2-0.1,0.3-0.1c0.7-0.1,1,0.2,1.1,0.8
		c0.1,0.8,0.1,1.6,0.2,2.4c0.5,2.3,1,4.5,1.5,6.8c0.1,0.6,0.3,1.2,0.1,1.8c-0.1,0.2-0.1,0.4-0.3,0.5c-0.4,0.5-1.1,0.3-1.3-0.3
		c-0.1-0.4-0.2-0.9-0.2-1.3c0-1.5-0.8-2.6-2.1-3.3c-1.5-0.9-3.2-1.3-4.9-1.6c-2.3-0.4-4.7-0.5-7.1-0.5c-9.6,0-19.1,0-28.7,0
		c-15.2,0-30.4,0-45.6,0c-20.3,0-40.5,0-60.8,0c-15.2,0-30.4,0-45.6,0c-10.1,0-20.3,0-30.4,0c-10.1,0-20.2,0-30.4,0
		c-10.2,0-20.3,0-30.5,0c-5,0-9.9,0-14.9,0C64.8,105.7,64.5,105.7,64.2,105.7z"/>
	<path d="M123.9,62.1c1.2,0,2.8-0.1,4.4-0.1c1.8,0,3.5-0.1,5.3-0.1c0.4,0,0.7,0,1.1,0.1c0.5,0.1,0.7,0.6,0.7,1
		c-0.1,0.4-0.4,0.7-0.9,0.7c-0.8,0.1-1.5,0.2-2.3,0.3c-2,0.3-2.9,1.2-3.3,3.2c-0.2,1.1-0.3,2.2-0.3,3.4c-0.1,6.5-0.1,12.9-0.1,19.4
		c0,0.8,0,1.6,0,2.5c0,1.2-0.6,1.9-1.6,2.5c-2.1,1-4.4,1.8-6.7,2.4c-5.5,1.4-11.1,1.9-16.8,1.6c-4-0.2-8-0.7-11.9-1.7
		c-6-1.6-11.5-4.2-16.3-8.3c-2.4-2.1-4.4-4.6-6-7.4c-2.7-4.5-4.4-9.4-5-14.6c-1-8.7,0.4-17.1,4.8-24.7c4.1-7.1,10.1-12,17.9-14.7
		c4.3-1.5,8.7-2.3,13.3-2.5c1.9-0.1,3.9-0.1,5.8-0.1c3.6,0,7.2,0.4,10.8,1c2.4,0.4,4.8,0.8,7.2,1.2c1,0.2,2.1,0.2,3.1,0.3
		c1.7,0.1,2.1,0.5,1.9,2.2c-0.5,3.8-0.6,7.6-0.6,11.5c0,0.6,0,1.3-0.1,1.9c0,0.2-0.1,0.5-0.2,0.7c-0.2,0.4-0.5,0.5-1,0.5
		c-0.4,0-0.6-0.3-0.7-0.6c-0.1-0.3-0.1-0.6-0.2-0.9c-0.2-1.5-0.5-3-1-4.4c-0.7-1.8-1.9-3.2-3.4-4.3c-2.1-1.5-4.4-2.5-6.8-3.2
		c-4.7-1.4-9.5-1.8-14.3-1.7c-3.2,0.1-6.3,0.4-9.3,1.3c-4.2,1.2-8,3.3-11.1,6.4c-2.4,2.4-4,5.2-5.2,8.3c-1.9,5.1-2.6,10.4-2.3,15.8
		c0.4,7.3,2.7,13.9,6.8,19.9c2,3,4.6,5.3,7.5,7.4c4.1,2.9,8.6,4.8,13.5,5.7c3.4,0.6,6.9,0.8,10.4,0.4c1.8-0.2,3.6-0.4,5.3-1
		c0.7-0.2,1.3-0.5,2-0.8c1.1-0.6,1.6-1.5,1.7-2.7c0-0.1,0-0.3,0-0.4c0-6,0-11.9,0-17.9c0-1.2-0.1-2.5-0.3-3.7
		c-0.2-1.7-1.2-2.8-2.9-3.3c-1.2-0.4-2.4-0.4-3.6-0.5c-0.2,0-0.5,0-0.7,0c-0.4-0.1-0.7-0.4-0.8-0.7c-0.1-0.4,0.1-0.8,0.6-1
		c0.4-0.1,0.8-0.2,1.2-0.2c1.8,0,3.7,0,5.5,0.1C120.4,61.9,121.9,62,123.9,62.1z"/>
	<path d="M228.6,140.6c0,5.2-1,9.8-3.3,14c-3.7,6.8-9.4,11-17,12.6c-5.2,1.1-10.4,0.8-15.5-0.9c-5.6-2-9.8-5.7-12.7-11
		c-2.4-4.4-3.5-9.1-3.2-14.1c0.5-8.2,3.7-15,10.2-20.1c2.8-2.2,6.1-3.6,9.7-4.3c5.8-1.1,11.6-0.8,17.2,1.5
		c7.7,3.1,12.3,8.8,14.1,16.9C228.5,137.2,228.6,139.2,228.6,140.6z M209,120.5c0,14.6,0,29,0,43.6c1.6-0.4,3-1.1,4.4-1.9
		c3.4-2.2,5.6-5.3,6.9-9.1c0.9-2.7,1.3-5.4,1.5-8.2c0.2-4.1-0.2-8.1-1.5-12c-1.6-4.6-4.3-8.4-8.5-11
		C210.9,121.3,210,120.8,209,120.5z M195.2,162.7c0-14.2,0-28.2,0-42.2c-0.2,0.1-0.4,0.1-0.6,0.2c-4.1,1.7-6.9,4.6-8.8,8.6
		c-1.3,2.9-2,5.9-2.1,9.1c-0.3,4.8,0.3,9.4,2.2,13.8c1.7,4,4.2,7.2,7.8,9.6C194.1,162.1,194.6,162.3,195.2,162.7z M197,119.8
		c0,14.7,0,29.2,0,43.7c1.4,0.5,2.9,1,4.4,1.1c0.2-1.2,0.1-44.8-0.1-45.4C199.8,119.4,198.4,119.6,197,119.8z M203.1,164.7
		c1.4,0.2,2.8,0,4.1-0.2c0-14.8,0-29.5,0-44.2c0.1,0,0.2-0.1,0.3-0.1c0.1,0,0.1,0,0.2-0.1c-1.5-0.6-3-0.9-4.6-0.9
		C203.1,134.4,203.1,149.5,203.1,164.7z"/>
	<path d="M195.7,54.9c0,0.4-0.1,0.8-0.1,1.2c-0.3,3.4-0.6,6.8-0.9,10.2c-0.3,3.2-0.5,6.5-0.8,9.7c-0.2,2.1-0.4,4.2-0.5,6.3
		c-0.1,1.3-0.1,2.7-0.1,4c0,0.8,0.4,1.3,1.2,1.5c0.5,0.2,1,0.2,1.6,0.3c0.4,0.1,0.8,0.1,1.1,0.1c0.3,0,0.5,0.2,0.6,0.5
		c0,0.3-0.1,0.6-0.4,0.7c-0.3,0.1-0.6,0.2-1,0.2c-1.4,0-2.7-0.1-4.1-0.1c-1.2,0-2.5,0-3.7,0c-1.1,0-2.2,0.1-3.3,0.1
		c-0.3,0-0.7,0-1-0.2c-0.2-0.1-0.4-0.4-0.4-0.7c0-0.3,0.3-0.5,0.5-0.5c0.1,0,0.3,0,0.5-0.1c0.4,0,0.7,0,1.1-0.1
		c1.4-0.2,2.1-0.7,2.5-2.1c0.2-0.9,0.3-1.8,0.5-2.7c0.5-4.1,0.9-8.2,1.4-12.3c0.4-3.9,0.9-7.9,1.3-11.8c0.5-4.4,1-8.8,1.5-13.2
		c0.1-1.1,0.2-2.3,0.4-3.4c0.1-0.5,0.1-0.9,0.3-1.3c0.3-0.8,1.1-0.9,1.6-0.2c0.3,0.4,0.5,0.8,0.7,1.3c4.4,9,8.8,18,13.2,27.1
		c1.7,3.5,3.4,7,5.1,10.5c0.1,0.2,0.2,0.4,0.4,0.8c0.2-0.4,0.3-0.7,0.5-1c5.9-12.6,11.8-25.2,17.7-37.7c0.2-0.3,0.3-0.7,0.5-0.9
		c0.5-0.7,1.3-0.6,1.6,0.2c0.2,0.4,0.2,0.9,0.3,1.4c0.4,3.5,0.8,7,1.1,10.4c0.4,3.5,0.8,7,1.2,10.5c0.4,3.5,0.7,7,1.1,10.5
		c0.3,3,0.7,6,1.1,9c0.1,0.8,0.4,1.7,0.8,2.5c0.5,1.1,1.4,1.9,2.6,2.1c1.1,0.2,2.2,0.3,3.3,0.4c0.7,0.1,0.9,0.2,0.9,0.6
		c0,0.4-0.3,0.8-0.9,0.9c-0.3,0.1-0.6,0.1-0.9,0.1c-3.4-0.1-6.9-0.2-10.3-0.4c-0.5,0-0.9-0.1-1.4-0.2c-0.8-0.2-0.9-0.8-0.3-1.4
		c0.1-0.1,0.3-0.4,0.3-0.6c0.1-0.3,0-0.6,0-0.9c-0.3-3.3-0.6-6.7-0.9-10c-0.3-3-0.5-6-0.8-9c-0.3-3-0.6-6.1-0.9-9.1
		c-0.1-1.3-0.2-2.5-0.5-3.9c-0.1,0.3-0.3,0.5-0.4,0.8c-2.7,5.7-5.4,11.4-8,17c-2.4,5.1-4.8,10.2-7.2,15.3c-0.3,0.5-0.5,1.1-0.8,1.5
		c-0.5,0.7-1.1,0.7-1.6,0c-0.4-0.5-0.7-1.1-1-1.6c-2.2-4.3-4.4-8.5-6.5-12.8c-3-6.3-6-12.7-8.9-19c-0.1-0.2-0.2-0.4-0.3-0.7
		C195.8,54.9,195.7,54.9,195.7,54.9z"/>
	<path d="M114.4,141c-9.2,0-18.4,0-27.6,0c0,0.2,0,0.5,0,0.7c0,5.6,0.1,11.2,0.1,16.8c0,1.4,0.2,2.7,0.3,4.1c0,0.3,0.1,0.7,0.2,1
		c0.3,0.9,0.9,1.5,1.9,1.7c0.9,0.1,1.7,0.2,2.6,0.3c0.2,0,0.3,0,0.5,0c0.4,0,0.6,0.2,0.7,0.6c0.1,0.4-0.1,0.7-0.6,0.8
		c-0.3,0.1-0.6,0.1-0.9,0.1c-1.5,0-3-0.1-4.4-0.1c-2.3,0-4.6,0-6.9,0c-0.9,0-1.9,0-2.8,0.1c-0.3,0-0.5,0-0.8-0.1
		c-0.4-0.1-0.6-0.4-0.6-0.8c0-0.3,0.3-0.6,0.7-0.7c0.5-0.1,1-0.1,1.4-0.2c1-0.1,1.6-0.6,1.8-1.5c0.2-0.9,0.4-1.9,0.5-2.8
		c0.1-3.3,0.2-6.6,0.2-10c0-7.4,0-14.8,0-22.2c0-2,0-4-0.1-6c0-0.7-0.1-1.3-0.3-2c-0.2-0.9-0.7-1.5-1.6-1.7
		c-0.8-0.2-1.6-0.3-2.4-0.4c-0.2,0-0.5,0-0.7-0.1c-0.3-0.1-0.5-0.3-0.6-0.6c0-0.3,0.1-0.6,0.5-0.7c0.3-0.1,0.6-0.1,0.9-0.1
		c2.1,0,4.3,0.1,6.4,0.1c1.7,0,3.5-0.1,5.2-0.1c0.7,0,1.3,0,2,0c0.3,0,0.6,0,0.8,0.1c0.3,0.1,0.6,0.4,0.5,0.8
		c-0.1,0.3-0.3,0.5-0.6,0.6c-0.4,0.1-0.7,0.1-1.1,0.1c-1.9,0.2-2.5,0.8-2.8,2.7c-0.2,1.4-0.2,2.9-0.2,4.3c0,3.8,0,7.6,0,11.4
		c0,0.2,0,0.4,0,0.5c0.6,0.2,26.1,0.2,27.6,0.1c0-0.2,0.1-0.4,0.1-0.6c0-4.2,0-8.4,0-12.6c0-1.1-0.1-2.2-0.2-3.4
		c-0.1-1.3-0.9-2-2.1-2.3c-0.7-0.1-1.5-0.2-2.2-0.3c-0.7-0.1-1-0.3-1-0.7c0-0.5,0.3-0.8,1-0.8c0.5,0,1,0,1.5,0
		c1.9,0.1,3.8,0.1,5.7,0.2c1.7,0,3.4-0.1,5.1-0.1c0.6,0,1.1,0,1.7,0c0.3,0,0.5,0,0.8,0.1c0.4,0.1,0.7,0.4,0.7,0.7
		c0,0.4-0.2,0.6-0.7,0.7c-0.2,0-0.4,0-0.5,0.1c-0.2,0-0.5,0-0.7,0.1c-1.7,0.3-2.4,0.9-2.5,2.7c-0.1,2.5-0.2,5-0.2,7.5
		c0,9.4,0,18.9,0.1,28.3c0,1.7,0.2,3.3,0.3,5c0,0.1,0,0.3,0.1,0.4c0.3,1.9,1,2.4,2.9,2.6c0.7,0.1,1.4,0.1,2.1,0.2
		c0.5,0,0.9,0.3,0.9,0.7c0,0.3-0.2,0.7-0.7,0.8c-0.2,0.1-0.5,0.1-0.8,0.1c-1.5,0-3-0.1-4.4-0.1c-2.3,0-4.6,0-6.9,0
		c-0.9,0-1.9,0-2.8,0.1c-0.2,0-0.5,0-0.7-0.1c-0.5-0.1-0.7-0.4-0.7-0.8c0-0.4,0.3-0.6,0.8-0.7c0.4,0,0.9-0.1,1.3-0.1
		c1.1-0.1,1.7-0.7,1.9-1.7c0.2-1.1,0.4-2.3,0.5-3.4c0.1-6.3,0.1-12.5,0.2-18.8C114.5,141.3,114.4,141.2,114.4,141z"/>
	<path d="M239.5,127.9c0,0.2,0,0.5,0,0.7c0.2,8.7,0.4,17.4,0.7,26c0.1,2,0.1,4.1,0.3,6.1c0.1,0.8,0.2,1.7,0.5,2.5
		c0.3,1.1,1,1.8,2.2,2c0.8,0.1,1.6,0.2,2.4,0.3c0.2,0,0.4,0,0.5,0c0.3,0.1,0.5,0.3,0.6,0.6c0,0.3-0.1,0.6-0.4,0.7
		c-0.3,0.1-0.6,0.2-1,0.2c-1.4,0-2.7-0.1-4.1-0.1c-2,0-4,0-6.1,0c-1.1,0-2.1,0-3.2,0c-0.2,0-0.5,0-0.7-0.1c-0.4-0.1-0.6-0.5-0.5-0.8
		c0.1-0.4,0.3-0.6,0.7-0.6c0.5-0.1,1.1-0.1,1.6-0.1c1.7-0.2,2.2-0.7,2.5-2.4c0.1-0.8,0.2-1.7,0.2-2.5c0.1-5.3,0.1-10.6,0.1-15.9
		c0-8.3,0-16.7,0-25c0-0.7,0.1-1.4,0.1-2.1c0-0.4,0.2-0.9,0.6-1c0.5-0.2,0.8,0.1,1.1,0.5c0.5,0.5,1.1,1.1,1.6,1.7
		c7.5,8.1,15.1,16.3,22.6,24.4c4.1,4.5,8.3,9,12.4,13.5c0.2,0.2,0.4,0.4,0.6,0.6c0,0,0.1,0,0.1-0.1c0-0.2,0-0.5,0-0.7
		c-0.2-10.8-0.5-21.6-0.7-32.3c0-0.9-0.1-1.8-0.3-2.7c-0.2-1.3-1.1-2.1-2.4-2.2c-0.7-0.1-1.5-0.1-2.2-0.2c-0.3,0-0.5,0-0.8-0.1
		c-0.3-0.1-0.5-0.3-0.5-0.6c0-0.3,0.1-0.6,0.4-0.7c0.4-0.1,0.7-0.2,1.1-0.2c1.7,0,3.4,0.1,5.1,0.1c1.1,0,2.2,0,3.3,0
		c1.3,0,2.7-0.1,4-0.1c0.3,0,0.6,0,0.8,0.1c0.3,0.1,0.5,0.3,0.6,0.6c0,0.3-0.2,0.6-0.6,0.7c-0.2,0.1-0.5,0.1-0.7,0.1
		c-0.5,0.1-1,0.1-1.5,0.3c-0.9,0.2-1.5,0.8-1.6,1.7c-0.2,1.1-0.3,2.1-0.3,3.2c0,4.6,0,9.1,0,13.7c0,8.9-0.1,17.8-0.1,26.7
		c0,0.7,0,1.5-0.1,2.2c-0.1,0.9-0.6,1.1-1.4,0.6c-0.6-0.4-1.1-0.9-1.6-1.4c-3.8-3.8-7.6-7.7-11.4-11.6c-8.1-8.4-16-17-23.8-25.7
		c-0.2-0.2-0.4-0.5-0.7-0.7C239.6,127.8,239.6,127.8,239.5,127.9z"/>
	<path d="M157.2,144.2c0.2,0.2,0.2,0.3,0.3,0.4c3.5,4.4,7,8.8,10.5,13.2c1.3,1.6,2.6,3.1,4.2,4.5c1.7,1.5,3.6,2.6,5.9,3
		c0.8,0.1,1.6,0.2,2.4,0.2c0.3,0,0.6,0.1,0.8,0.2c0.5,0.3,0.5,0.9,0,1.1c-0.3,0.1-0.6,0.2-1,0.2c-2.8,0-5.5,0-8.3-0.1
		c-2.2-0.1-4.1-1-5.8-2.4c-1.3-1.1-2.5-2.4-3.5-3.8c-3.2-4.2-6.3-8.4-9.4-12.6c-0.4-0.5-0.7-1-1.1-1.5c-0.2-0.3-0.5-0.5-0.9-0.5
		c-2.6,0-5.2-0.1-7.7-0.1c0,0-0.1,0-0.2,0.1c0,0.1-0.1,0.3-0.1,0.5c0.1,4.6,0.1,9.1,0.2,13.7c0,0.9,0.1,1.8,0.3,2.7
		c0.3,1.5,0.8,2,2.3,2.2c0.8,0.1,1.6,0.2,2.4,0.2c0.2,0,0.4,0,0.5,0c0.3,0.1,0.5,0.3,0.6,0.6c0,0.3-0.1,0.6-0.4,0.7
		c-0.4,0.1-0.7,0.2-1.1,0.2c-2.1,0-4.2-0.1-6.4-0.1c-2.1,0-4.3,0.1-6.4,0.1c-0.4,0-0.8,0-1.2,0c-0.2,0-0.5,0-0.7-0.1
		c-0.4-0.1-0.6-0.4-0.5-0.7c0-0.4,0.3-0.6,0.7-0.6c0.5-0.1,1.1-0.1,1.6-0.2c0.9-0.1,1.4-0.6,1.7-1.4c0.4-1.4,0.5-2.9,0.6-4.4
		c0.1-2.6,0.1-5.2,0.1-7.7c0-8.8,0-17.7,0-26.5c0-1.3-0.1-2.6-0.2-3.9c-0.1-1.2-0.9-2-2.1-2.3c-0.7-0.2-1.4-0.2-2-0.3
		c-0.3,0-0.5,0-0.8-0.1c-0.3-0.1-0.5-0.3-0.5-0.6c0-0.3,0.1-0.6,0.4-0.7c0.3-0.1,0.6-0.2,1-0.2c1.9,0,3.8,0.1,5.7,0.1
		c1.1,0,2.3,0,3.4,0c2.9,0,5.7-0.1,8.6,0c2.6,0.1,5.2,0.5,7.6,1.8c4.2,2.3,6.3,5.8,6.2,10.6c0,3.8-1.5,7.1-3.7,10.1
		c-1,1.4-2.2,2.6-3.4,3.8C157.6,143.9,157.4,144,157.2,144.2z M143.4,131.4c0,3.3,0,6.6,0,10c0,1.1,0.1,1.2,1.2,1.5
		c0.1,0,0.2,0,0.3,0.1c2.3,0.5,4.5,0.7,6.8,0.5c2.6-0.2,4.5-1.5,5.6-3.8c0.2-0.5,0.5-0.9,0.6-1.4c1.3-4,1.3-8.1-0.2-12
		c-1.3-3.3-3.7-5.4-7.2-6.1c-2-0.4-4.1-0.3-6.1,0c-1,0.1-1,0.2-1,1.3C143.4,124.8,143.4,128.1,143.4,131.4z"/>
	<path d="M155.1,71.1c-2.1,0-4.2,0-6.3,0c-0.7,0-0.7,0-1,0.7c-1.3,3.8-2.6,7.6-3.9,11.5c-0.3,0.9-0.5,1.9-0.6,2.9
		c-0.2,1,0.3,1.7,1.3,1.9c0.3,0.1,0.7,0.1,1,0.1c0.3,0,0.5,0,0.8,0.1c0.2,0.1,0.4,0.3,0.5,0.5c0.1,0.3,0,0.6-0.3,0.7
		c-0.3,0.1-0.6,0.2-1,0.2c-1.1,0-2.3-0.1-3.4-0.1c-0.9,0-1.9,0-2.8,0c-1.9,0-3.8,0.1-5.7,0.1c-0.3,0-0.6,0-0.9-0.1
		c-0.4-0.1-0.6-0.4-0.5-0.8c0-0.4,0.3-0.5,0.6-0.6c0.5-0.1,1-0.1,1.5-0.1c1.7-0.1,3.1-0.8,3.9-2.3c0.6-1,1.1-2.1,1.5-3.2
		c2.7-7.2,5.3-14.5,8-21.7c2.2-6,4.4-12.1,6.6-18.1c0.2-0.5,0.4-1,0.6-1.5c0.2-0.4,0.4-0.7,0.9-0.8c0.5,0,0.8,0.4,1,0.8
		c0.3,0.6,0.5,1.1,0.7,1.7c1.7,4.4,3.4,8.8,5.1,13.2c3.2,8.2,6.3,16.3,9.5,24.5c0.5,1.3,1.2,2.5,1.8,3.8c0.1,0.3,0.3,0.5,0.5,0.8
		c1.1,1.7,2.7,2.7,4.7,2.8c0.3,0,0.7,0,1,0.1c0.3,0,0.6,0.2,0.6,0.6c0,0.3-0.1,0.6-0.5,0.7c-0.4,0.1-0.7,0.2-1.1,0.2
		c-1.3,0-2.6,0-3.9,0c-2.3,0-4.5-0.1-6.8-0.2c-0.3,0-0.6,0-0.8-0.1c-0.6-0.2-0.6-0.8-0.2-1.1c0.8-0.6,0.8-0.7,0.5-1.6
		c-1.9-5-3.7-9.9-5.6-14.9c-0.2-0.6-0.2-0.6-0.9-0.6C159.3,71.1,157.2,71.1,155.1,71.1z M149.1,68.1c4,0,7.9,0,11.8,0
		c-2-5.8-4-11.5-6.1-17.2c-0.1,0-0.1,0-0.2,0C152.8,56.6,151,62.3,149.1,68.1z"/>
	<path d="M302.3,120.5c0,6.2,0,12.3,0,18.5c0.3,0,0.5,0,0.8,0c3,0,6-0.1,9-0.1c0.7,0,1.4-0.1,2.1-0.2c0.6-0.1,1.1-0.4,1.5-0.8
		c0.2-0.2,0.4-0.4,0.6-0.6c0.5-0.3,0.9-0.1,0.9,0.5c0,0.3,0,0.6,0,0.9c-0.5,2.4-0.6,4.8-0.7,7.2c0,0.3,0,0.6-0.1,0.8
		c-0.1,0.4-0.4,0.6-0.7,0.6c-0.4,0-0.6-0.2-0.6-0.6c0-0.2-0.1-0.5-0.1-0.8c-0.1-0.5-0.1-1-0.2-1.4c-0.2-1-0.9-1.7-1.8-1.9
		c-0.8-0.2-1.6-0.3-2.4-0.4c-2.6-0.1-5.2-0.2-7.8-0.2c-0.1,0-0.2,0-0.4,0c0,0.2-0.1,0.4-0.1,0.6c0,5.3,0,10.6,0,15.9
		c0,0.9,0.1,1.9,0.3,2.8c0.2,1.1,0.9,1.8,2,2.1c0.8,0.2,1.6,0.4,2.4,0.4c2.2,0.1,4.3,0.2,6.5-0.1c0.3,0,0.5-0.1,0.8-0.1
		c2.2-0.3,3.4-1.6,3.9-3.7c0.1-0.4,0.2-0.8,0.3-1.2c0.1-0.3,0.1-0.5,0.3-0.8c0.1-0.3,0.4-0.4,0.7-0.4c0.3,0,0.5,0.2,0.6,0.5
		c0,0.3,0.1,0.6,0.1,0.8c-0.3,2.1-0.5,4.1-0.8,6.1c0,0.2-0.1,0.3-0.1,0.5c-0.3,0.9-0.9,1.4-1.8,1.5c-0.4,0-0.9,0-1.3,0
		c-4.7-0.1-9.3-0.2-14-0.3c-2,0-4,0-6.1,0c-0.9,0-1.8,0-2.8,0.1c-0.2,0-0.5,0-0.7,0c-0.5-0.1-0.8-0.4-0.8-0.8c0-0.4,0.3-0.6,0.9-0.7
		c0.4,0,0.9-0.1,1.3-0.1c1-0.1,1.6-0.6,1.8-1.6c0.2-1,0.4-2,0.5-2.9c0.1-4.4,0.2-8.8,0.2-13.3c0-7.8,0-15.6,0-23.4
		c0-0.9-0.1-1.7-0.2-2.6c-0.2-1.5-0.8-2.2-2.3-2.5c-0.7-0.1-1.4-0.2-2.1-0.2c-0.7-0.1-1-0.3-1-0.7c0-0.5,0.3-0.7,1-0.8
		c0.4,0,0.8,0,1.2,0c6.9,0.2,13.7,0.2,20.6,0.1c0.4,0,0.9,0,1.3-0.1c0.9-0.1,1.9-0.1,2.8-0.5c0.5-0.2,0.9,0,0.9,0.5
		c0,0.3,0,0.7-0.1,1c-0.3,1.3-0.5,2.7-0.5,4.1c0,0.8-0.1,1.5-0.2,2.3c0,0.3-0.1,0.5-0.2,0.8c-0.1,0.3-0.3,0.4-0.7,0.4
		c-0.3,0-0.5-0.2-0.6-0.5c-0.1-0.3-0.1-0.6-0.1-0.8c-0.1-0.5-0.1-0.9-0.2-1.4c-0.2-1.1-0.8-1.9-1.9-2.1c-1-0.2-2-0.5-3-0.5
		c-2.7-0.1-5.3-0.1-8-0.2C302.7,120.4,302.5,120.4,302.3,120.5z"/>
	<path d="M263.1,43.7c0,6.1,0,12.2,0,18.3c0.2,0,0.4,0.1,0.7,0.1c3,0,6-0.1,9-0.1c0.6,0,1.2-0.1,1.8-0.2c0.7-0.1,1.4-0.4,1.8-1
		c0.2-0.2,0.4-0.4,0.6-0.5c0.4-0.2,0.7,0,0.8,0.4c0,0.3,0,0.7,0,1c-0.5,2.3-0.6,4.7-0.7,7.1c0,0.3,0,0.6-0.1,0.8
		c-0.1,0.3-0.3,0.6-0.7,0.6c-0.4,0-0.6-0.2-0.7-0.6c0-0.2,0-0.5-0.1-0.8c-0.1-0.5-0.1-1-0.2-1.5c-0.2-0.8-0.8-1.5-1.6-1.7
		c-0.8-0.2-1.5-0.4-2.3-0.4c-2.6-0.1-5.2-0.2-7.7-0.2c-0.2,0-0.4,0-0.6,0.1c0,0.3,0,0.5,0,0.7c0,5,0,10.1,0,15.1c0,1,0.1,2,0.3,3
		c0.2,1.3,1,2.2,2.3,2.4c0.7,0.2,1.5,0.3,2.3,0.3c2.3,0.1,4.5,0.1,6.8-0.2c0.3-0.1,0.7-0.1,1-0.2c1.3-0.4,2.3-1.2,2.7-2.5
		c0.2-0.7,0.4-1.5,0.6-2.2c0.1-0.2,0.1-0.5,0.3-0.7c0.1-0.2,0.4-0.3,0.6-0.3c0.3,0,0.5,0.2,0.5,0.4c0.1,0.3,0.1,0.7,0.1,1
		c-0.2,2-0.5,3.9-0.8,5.9c0,0.3-0.2,0.6-0.3,0.9c-0.3,0.7-0.8,1-1.4,1.1c-0.6,0.1-1.1,0.1-1.7,0.1c-5-0.1-9.9-0.2-14.9-0.4
		c-1,0-1.9,0-2.9,0c-1.6,0-3.1,0.1-4.7,0.1c-0.3,0-0.6,0-0.8-0.1c-0.4-0.1-0.6-0.4-0.5-0.8c0-0.3,0.3-0.6,0.6-0.6
		c0.3-0.1,0.7-0.1,1-0.1c1.7-0.2,2.2-0.6,2.5-2.2c0.4-1.9,0.4-3.8,0.4-5.6c0.1-2.6,0.1-5.3,0.1-7.9c0-7.9,0-15.9,0-23.8
		c0-1.1-0.1-2.2-0.1-3.3c0-0.3-0.1-0.7-0.2-1c-0.2-0.8-0.7-1.4-1.5-1.6c-0.8-0.2-1.5-0.3-2.3-0.4c-0.3,0-0.6,0-0.8-0.1
		c-0.3-0.1-0.5-0.3-0.5-0.6c0-0.3,0.1-0.6,0.4-0.7c0.3-0.1,0.6-0.1,1-0.1c1.6,0,3.2,0.1,4.8,0.1c3.1,0,6.2,0.1,9.3,0.1
		c2.8,0,5.5-0.1,8.3-0.1c0.9,0,1.8-0.1,2.7-0.5c0.5-0.2,0.9,0,0.9,0.6c0,0.2,0,0.4,0,0.5c-0.5,2-0.5,4.1-0.7,6.2
		c0,0.4-0.1,0.7-0.2,1.1c-0.1,0.5-0.4,0.7-0.7,0.7c-0.4,0-0.6-0.3-0.7-0.8c0-0.1,0-0.3,0-0.5c0-0.2,0-0.4,0-0.6
		c-0.2-1.9-0.8-2.7-2.7-3.1c-0.9-0.2-1.8-0.3-2.6-0.4c-2.4-0.1-4.9-0.1-7.3-0.2C263.6,43.7,263.4,43.7,263.1,43.7z"/>
	<path d="M352.8,122.2c0,0.8,0,1.9,0,3c0,0.4-0.1,0.7-0.1,1.1c-0.1,0.3-0.3,0.5-0.6,0.5c-0.3,0-0.6-0.2-0.7-0.5
		c-0.1-0.2-0.1-0.3-0.1-0.5c-0.1-0.6-0.3-1.2-0.4-1.9c-0.3-1.6-1.3-2.7-2.8-3.5c-1-0.5-2.1-0.8-3.2-1c-1.7-0.2-3.4-0.3-5.1,0.2
		c-2.9,0.9-4.8,3.3-4.9,6.4c-0.1,2,0.4,3.8,1.7,5.3c1,1.2,2.1,2.3,3.3,3.3c1.7,1.5,3.5,2.9,5.3,4.3c2,1.6,3.9,3.3,5.5,5.2
		c1.8,2.2,3.1,4.6,3.4,7.5c0.6,5.3-1,9.8-5.3,13.1c-1.8,1.4-3.9,2.2-6.1,2.6c-3.6,0.7-7.2,0.5-10.8-0.5c-0.8-0.2-1.5-0.6-2.3-0.9
		c-0.6-0.3-1-0.8-1-1.5c0-0.4-0.1-0.8-0.1-1.1c0.1-2.3,0.2-4.5,0.3-6.8c0-0.3,0.1-0.7,0.2-1c0.1-0.4,0.4-0.5,0.8-0.5
		c0.4,0,0.6,0.3,0.6,0.6c0,0.5,0,1,0.1,1.5c0.2,2.3,1,4.2,2.9,5.7c1.1,0.9,2.5,1.3,3.9,1.6c2.1,0.4,4.2,0.4,6.3-0.4
		c3.1-1.1,5.2-4,5.4-7.3c0.2-2.9-0.7-5.4-2.7-7.5c-1.3-1.3-2.6-2.6-4-3.8c-1.9-1.7-4-3.3-5.9-5c-1.8-1.6-3.4-3.4-4.5-5.5
		c-1.8-3.3-2.2-6.7-1.3-10.3c0.9-3.6,3.3-6,6.8-7.4c2.4-1,4.9-1.2,7.4-1.2c1.9,0,3.8,0.3,5.6,0.7c0.6,0.1,1.2,0.2,1.8,0.3
		c0.8,0.1,1,0.3,0.9,1.1C353,119.6,352.9,120.7,352.8,122.2z"/>
	<path d="M308.5,50.5c2.7,0.1,5.3,0.6,7.7,1.9c3.5,1.9,5.8,4.8,6.6,8.7c0.9,4.1,0.5,8-1.5,11.7c-2.2,4.1-5.7,6.5-10.3,7.3
		c-2.7,0.5-5.4,0.3-8.1-0.6c-4.3-1.4-7.1-4.4-8.6-8.6c-1.9-5.6-1-10.8,2.8-15.4c2.2-2.7,5.1-4.2,8.6-4.7
		C306.7,50.7,307.6,50.6,308.5,50.5z M304.5,53c-0.4,0.1-0.7,0.2-0.9,0.4c-2.8,1.2-4.5,3.4-5.3,6.3c-1,3.6-0.9,7.1,0.3,10.6
		c0.8,2.5,2.2,4.5,4.3,6.1c0.5,0.4,1,0.7,1.6,0.9C304.5,69.2,304.5,61.2,304.5,53z M312.4,77.7c0.3-0.1,0.5-0.1,0.6-0.2
		c1.9-0.8,3.4-2.2,4.4-4c1-1.8,1.4-3.7,1.6-5.6c0.3-2.8,0-5.6-1-8.2c-1-2.5-2.5-4.5-4.9-5.8c-0.2-0.1-0.4-0.4-0.8-0.2
		C312.4,61.6,312.4,69.6,312.4,77.7z M311.4,78c0-8.3,0-16.6,0-24.9c-0.8-0.3-1.6-0.5-2.5-0.5c0,8.6,0,17.1,0,25.7
		C309.7,78.3,310.5,78.3,311.4,78z M307.8,78.3c0-8.7,0-17.2,0-25.8c-0.8,0.1-1.5,0.2-2.2,0.3c0,8.4,0,16.7,0,25
		C306.3,77.9,307,78.1,307.8,78.3z"/>
	<path d="M331.4,51.3c0,3.8,0,7.5,0,11.3c0.2,0,0.3,0.1,0.4,0.1c2.3,0,4.6-0.1,6.9-0.1c0.7,0,1.3-0.1,1.7-0.7
		c0.1-0.2,0.4-0.4,0.7-0.2c0.2,0.1,0.3,0.4,0.3,0.6c-0.1,1.6-0.3,3.1-0.4,4.7c0,0.1,0,0.3-0.1,0.4c-0.1,0.1-0.3,0.3-0.4,0.3
		c-0.2,0-0.4-0.2-0.5-0.4c-0.1-0.2-0.1-0.4-0.1-0.7c-0.2-1.3-0.8-1.9-2.1-2c-0.7,0-1.4,0-2.1,0c-1.1,0-2.3,0-3.4,0
		c-0.3,0-0.5,0-0.8,0c0,0.3,0,0.5,0,0.7c0,3.2,0,6.4,0,9.7c0,1,0.1,2,0.1,3c0,0.3,0.1,0.5,0.1,0.8c0.1,0.7,0.5,1,1.2,1.1
		c0.5,0.1,1,0.1,1.4,0.1c0.3,0,0.6,0.1,0.6,0.5c0,0.4-0.3,0.5-0.6,0.6c-0.2,0-0.4,0-0.6,0c-1.3,0-2.6-0.1-3.9-0.1
		c-1.2,0-2.4,0.1-3.7,0.1c-0.3,0-0.5,0-0.8-0.1c-0.3-0.1-0.5-0.3-0.4-0.6c0.1-0.2,0.3-0.4,0.4-0.5c0.3-0.1,0.6-0.1,0.9-0.1
		c0.5,0,0.8-0.3,0.9-0.8c0.1-0.8,0.3-1.6,0.3-2.3c0.1-2.1,0.1-4.3,0.1-6.4c0-5.7,0-11.4,0-17.2c0-0.4,0-0.7,0-1.1
		c-0.1-1.3-0.5-1.7-1.7-1.8c-0.3,0-0.5,0-0.8-0.1c-0.3,0-0.6-0.1-0.6-0.5c0-0.3,0.2-0.6,0.7-0.6c0.6,0,1.2,0,1.8,0
		c3.7,0,7.5,0.1,11.2,0.1c0.9,0,1.7,0,2.6-0.3c0.4-0.2,0.7,0.1,0.7,0.4c0,0.1,0,0.3,0,0.5c-0.1,1.1-0.3,2.2-0.4,3.3
		c0,0.3-0.1,0.6-0.1,0.8c-0.1,0.3-0.3,0.4-0.6,0.4c-0.3,0-0.4-0.2-0.5-0.5c-0.1-0.3-0.1-0.6-0.1-0.9c-0.1-0.7-0.5-1.1-1.1-1.3
		c-0.4-0.1-0.7-0.2-1.1-0.2c-1.9-0.1-3.7-0.1-5.6-0.1C331.6,51.3,331.5,51.3,331.4,51.3z"/>
	<path d="M360.6,117.8c0.3,0,0.6,0,0.9,0c0.4,1.3,0.9,2.5,1.3,3.8c0,0,0.1,0,0.1,0c0.4-1.2,0.9-2.5,1.3-3.8c0.3,0,0.6,0,0.9,0
		c0,1.6,0,3.1,0,4.7c-0.2,0-0.3,0-0.6,0c0-1.2,0-2.3,0-3.5c-0.1,0-0.1,0-0.2,0c-0.4,1.1-0.8,2.3-1.2,3.5c-0.2,0-0.4,0-0.6,0.1
		c-0.4-1.2-0.8-2.4-1.3-3.6c0,0-0.1,0-0.1,0c0,1.1,0,2.3,0,3.5c-0.2,0-0.4,0-0.6,0C360.6,120.9,360.6,119.4,360.6,117.8z"/>
	<path d="M358.4,118.4c0,1.4,0,2.7,0,4.1c-0.2,0-0.4,0.1-0.6,0.1c0-1.4,0-2.8,0-4.1c-0.6-0.4-1.2,0.1-1.6-0.4c0,0,0-0.1,0-0.3
		c0.2,0,0.3-0.1,0.5-0.1c0.9,0,1.9,0,2.8,0c0.1,0,0.2,0,0.3,0c0.1,0,0.3,0.2,0.2,0.2c0,0.1-0.2,0.3-0.3,0.3c-0.3,0-0.7,0-1,0
		C358.6,118.3,358.5,118.4,358.4,118.4z"/>
</g>
</svg>
