<?xml version="1.0" encoding="utf-8"?>
<!-- Generator: Adobe Illustrator 21.1.0, SVG Export Plug-In . SVG Version: 6.00 Build 0)  -->
<svg version="1.1" id="Слой_1" xmlns="http://www.w3.org/2000/svg" xmlns:xlink="http://www.w3.org/1999/xlink" x="0px" y="0px"
	 viewBox="0 0 400 200" style="enable-background:new 0 0 400 200;" xml:space="preserve">
<g>
	<g>
		<path d="M151.3,68.1V45.8h16.9v4.9H158v17.3H151.3z"/>
		<path d="M182.9,45.8c1.5,0,2.7,0.1,3.7,0.4c1.1,0.3,1.9,0.7,2.5,1.1c0.7,0.5,1.1,1.1,1.5,1.6c0.3,0.7,0.4,1.3,0.4,2
			s-0.1,1.3-0.3,1.9c-0.3,0.5-0.4,1.1-0.8,1.5c-0.3,0.4-0.7,0.8-1.1,1.1c-0.4,0.3-0.7,0.5-1.1,0.5c0.7,0.3,1.3,0.5,1.9,0.9
			c0.5,0.4,1.1,0.8,1.5,1.2s0.7,0.9,0.9,1.6c0.3,0.7,0.4,1.3,0.4,2.1c0,0.9-0.1,1.7-0.5,2.5c-0.3,0.8-0.8,1.5-1.5,2
			c-0.7,0.5-1.5,0.9-2.4,1.3c-0.9,0.3-2,0.4-3.2,0.4h-12.8V45.8H182.9z M178.8,49.6v5.3h1.5c0.7,0,1.3,0,1.9-0.1
			c0.5,0,0.9-0.1,1.3-0.4c0.4-0.1,0.7-0.4,0.8-0.8c0.1-0.4,0.3-0.8,0.3-1.3c0-0.5-0.1-1.1-0.3-1.3c-0.3-0.4-0.5-0.7-0.9-0.8
			c-0.4-0.1-0.8-0.3-1.3-0.4c-0.5,0-1.2-0.1-1.9-0.1C180.1,49.6,178.8,49.6,178.8,49.6z M178.8,58.6v5.7h2.7c1.5,0,2.4-0.3,3.1-0.7
			c0.7-0.4,1.1-1.2,1.1-2.1c0-1.9-1.3-2.8-4.1-2.8h-2.7V58.6z"/>
		<path d="M220.5,56.9c0,1.5-0.3,2.9-0.8,4.4c-0.5,1.3-1.3,2.5-2.4,3.6c-1.1,1.1-2.4,1.9-4,2.5c-1.6,0.7-3.5,0.9-5.6,0.9
			c-1.5,0-2.8-0.1-4-0.4c-1.2-0.3-2.3-0.7-3.2-1.2c-0.9-0.5-1.7-1.2-2.4-1.9c-0.7-0.7-1.2-1.5-1.7-2.4c-0.4-0.8-0.8-1.7-1.1-2.7
			c-0.3-0.9-0.3-1.9-0.3-2.8c0-1.5,0.3-2.8,0.8-4.3c0.5-1.3,1.2-2.5,2.3-3.6c1.1-1.1,2.4-1.9,4-2.5c1.6-0.7,3.5-0.9,5.6-0.9
			c2.1,0,4,0.3,5.6,0.9s2.9,1.5,4,2.5c1.1,1.1,1.9,2.3,2.4,3.6C220.3,54.1,220.5,55.4,220.5,56.9z M202.1,56.9
			c0,0.8,0.1,1.6,0.4,2.3c0.3,0.7,0.7,1.3,1.1,1.9c0.5,0.5,1.1,0.9,1.9,1.2c0.7,0.3,1.5,0.4,2.4,0.4c0.9,0,1.7-0.1,2.5-0.4
			c0.7-0.3,1.3-0.7,1.9-1.2c0.5-0.5,0.8-1.1,1.1-1.9c0.3-0.7,0.4-1.5,0.4-2.3c0-0.8-0.1-1.6-0.4-2.3c-0.3-0.7-0.7-1.3-1.1-1.9
			c-0.5-0.5-1.1-0.9-1.9-1.2c-0.7-0.3-1.6-0.4-2.5-0.4c-0.9,0-1.7,0.1-2.4,0.4s-1.3,0.7-1.9,1.2c-0.5,0.5-0.9,1.1-1.1,1.9
			C202.3,55.3,202.1,56.1,202.1,56.9z"/>
		<path d="M224.2,46.8c0.9-0.4,2.1-0.7,3.3-0.9c1.2-0.3,2.5-0.4,4-0.4c1.6,0,3.1,0.1,4.3,0.4c1.2,0.3,2.1,0.7,2.9,1.2
			c0.8,0.5,1.3,1.2,1.6,1.9c0.3,0.7,0.5,1.5,0.5,2.4c0,0.7-0.1,1.3-0.3,1.9c-0.3,0.5-0.5,1.1-0.9,1.5s-0.8,0.8-1.3,1.1
			c-0.5,0.3-1.1,0.5-1.6,0.5c1.6,0.4,2.8,1.1,3.5,1.9c0.8,0.8,1.2,2,1.2,3.5c0,0.9-0.1,1.7-0.5,2.5c-0.4,0.8-0.9,1.5-1.7,2.1
			c-0.8,0.7-1.7,1.1-2.9,1.5c-1.2,0.4-2.5,0.5-4.1,0.5c-0.7,0-1.2,0-1.9-0.1c-0.7,0-1.3-0.1-2-0.3c-0.7-0.1-1.3-0.3-2-0.4
			s-1.3-0.4-2-0.7v-5.5c0.4,0.3,0.8,0.4,1.3,0.7c0.5,0.3,1.1,0.4,1.7,0.5c0.7,0.1,1.2,0.3,2,0.4c0.7,0.1,1.3,0.1,2,0.1
			s1.3,0,1.7-0.1c0.5-0.1,0.8-0.3,1.2-0.4c0.3-0.1,0.5-0.4,0.7-0.7c0.1-0.3,0.1-0.5,0.1-0.8c0-0.4,0-0.8-0.1-1.1s-0.4-0.5-0.7-0.7
			c-0.3-0.1-0.7-0.4-1.2-0.4c-0.5-0.1-1.1-0.1-1.7-0.1H227v-4.5h4.3c0.8,0,1.5,0,1.9-0.1c0.5-0.1,0.8-0.3,1.1-0.5
			c0.3-0.3,0.4-0.4,0.5-0.7c0.1-0.3,0.1-0.5,0.1-0.8c0-0.3,0-0.7-0.1-0.9c-0.1-0.3-0.3-0.5-0.5-0.7c-0.3-0.1-0.5-0.3-1.1-0.4
			c-0.4-0.1-1.1-0.1-1.7-0.1c-0.5,0-1.1,0-1.7,0.1c-0.7,0.1-1.2,0.1-1.9,0.4c-0.7,0.3-1.2,0.4-1.7,0.5c-0.5,0.3-1.1,0.4-1.5,0.7
			v-4.9H224.2z"/>
		<path d="M243.2,63.2h3.3l8.3-17.6h4.4l8.1,17.6h3.3v9.1h-5.6v-4.1h-16.3v4.1h-5.6L243.2,63.2L243.2,63.2z M253,63.2h8l-4-9.6
			L253,63.2z"/>
		<path d="M280.1,63.6l-1.9,4.5h-6.9l9.9-22.3h7.5l9.9,22.3h-6.9l-1.9-4.5H280.1z M288.2,59.7l-3.2-8.1l-3.3,8.1H288.2z"/>
		<path d="M322.8,45.8v4.9h-8.1v17.3h-6.7V50.8h-8.1v-4.9H322.8z"/>
		<path d="M326.8,45.8h6.7V54h3.9c1.5,0,2.8,0.1,3.7,0.5c1.1,0.4,1.9,0.9,2.5,1.6c0.7,0.7,1.2,1.3,1.5,2.3c0.3,0.8,0.4,1.7,0.4,2.7
			c0,0.9-0.1,1.9-0.5,2.7s-0.9,1.6-1.6,2.3s-1.6,1.2-2.5,1.5c-1.1,0.4-2.1,0.5-3.5,0.5h-10.8V45.8H326.8z M333.4,58.2v5.6h1.6
			c0.7,0,1.3-0.1,1.7-0.3c0.5-0.1,0.9-0.3,1.2-0.5c0.3-0.3,0.5-0.5,0.7-0.9c0.1-0.4,0.3-0.7,0.3-1.2c0-0.5,0-0.9-0.1-1.2
			c-0.1-0.4-0.3-0.7-0.5-0.8c-0.3-0.3-0.7-0.4-1.2-0.5c-0.5-0.1-1.1-0.1-1.9-0.1C335.2,58.2,333.4,58.2,333.4,58.2z M355.3,45.8
			v22.3h-6.7V45.8H355.3z"/>
		<path d="M385.2,45.8v22.3h-6.7V55.3l-11.6,12.8h-6V45.8h6.7v12.7l11.5-12.7H385.2z M379.2,38.7c-0.1,0.9-0.5,1.9-1.1,2.7
			c-0.5,0.8-1.2,1.6-2.1,2c-0.9,0.5-1.9,0.8-2.9,0.8c-0.9,0-2-0.3-2.8-0.8c-0.9-0.5-1.6-1.2-2.3-2c-0.5-0.8-0.9-1.7-0.9-2.8h2.8
			c0.1,0.3,0.3,0.5,0.5,0.9c0.3,0.3,0.5,0.7,1.1,0.9c0.4,0.3,1.1,0.4,1.7,0.4c1.1,0,1.7-0.3,2.1-0.7c0.4-0.4,0.8-0.9,1.1-1.6h2.8
			V38.7z"/>
	</g>
</g>
<g>
	<path d="M150.6,79.7h17.9l20.1,24.6l20.3-24.7h17.9v65.6h-19.7v-38l-17.9,22h-1.6l-17.9-22v38h-19.2V79.7H150.6z"/>
	<path d="M314.7,79.7v65.6h-19.6v-37.6l-34,37.5h-17.6V79.7h19.7v37.4l33.9-37.4H314.7z"/>
	<path d="M364,79.7c3.1,0,5.7,0.3,8.1,0.9c2.4,0.7,4.4,1.5,6.3,2.5c1.7,1.1,3.3,2.3,4.5,3.6s2.3,2.8,2.9,4.4
		c0.8,1.5,1.3,3.1,1.6,4.7c0.4,1.6,0.5,3.1,0.5,4.5c0,1.5-0.1,2.9-0.5,4.5c-0.4,1.6-0.9,3.1-1.6,4.7c-0.8,1.5-1.7,2.9-2.9,4.3
		c-1.2,1.3-2.8,2.5-4.5,3.6c-1.7,1.1-3.9,1.9-6.3,2.4c-2.4,0.5-5.1,0.9-8.1,0.9H351v24.7h-19.7V79.7H364z M351,92.3v15.9h4.3
		c2.4,0,4.3-0.1,5.9-0.3c1.6-0.3,2.9-0.5,3.9-1.2c0.9-0.5,1.7-1.3,2.1-2.4c0.4-0.9,0.7-2.3,0.7-3.9c0-1.6-0.3-2.9-0.7-3.9
		c-0.4-1.1-1.2-1.9-2.1-2.5c-0.9-0.7-2.3-1.1-3.9-1.3c-1.6-0.3-3.6-0.4-6-0.4C355.2,92.3,351,92.3,351,92.3z"/>
</g>
<g>
	<path d="M144.1,166.6c0-1.5,0.3-2.9,0.8-4.4c0.5-1.3,1.3-2.5,2.4-3.6c1.1-1.1,2.3-1.9,3.7-2.5c1.5-0.7,3.1-0.9,4.9-0.9
		c1.9,0,3.5,0.3,4.9,0.9c1.5,0.7,2.7,1.5,3.7,2.4c1.1,1.1,1.9,2.3,2.4,3.6c0.5,1.3,0.8,2.8,0.8,4.4c0,1.5-0.3,2.9-0.8,4.3
		c-0.5,1.3-1.3,2.5-2.4,3.6c-1.1,1.1-2.3,1.9-3.7,2.5s-3.2,0.9-5.1,0.9c-1.2,0-2.4-0.1-3.3-0.4c-1.1-0.3-2-0.7-2.9-1.2
		c-0.9-0.5-1.6-1.1-2.4-1.9c-0.7-0.7-1.3-1.5-1.7-2.3c-0.5-0.8-0.8-1.7-1.1-2.7C144.2,168.6,144.1,167.6,144.1,166.6z M147.4,166.6
		c0,1.2,0.3,2.3,0.7,3.3c0.4,1.1,1.1,1.9,1.7,2.7c0.8,0.8,1.7,1.3,2.7,1.7c1.1,0.4,2.1,0.7,3.5,0.7c1.3,0,2.4-0.3,3.5-0.7
		c1.1-0.4,2-1.1,2.7-1.7s1.3-1.6,1.7-2.7c0.4-1.1,0.7-2.1,0.7-3.3c0-1.2-0.3-2.4-0.7-3.3c-0.4-1.1-1.1-1.9-1.7-2.7
		c-0.8-0.8-1.7-1.3-2.7-1.7c-1.1-0.4-2.3-0.7-3.5-0.7c-1.2,0-2.4,0.3-3.5,0.7c-1.1,0.4-2,1.1-2.7,1.7c-0.8,0.8-1.3,1.6-1.7,2.7
		C147.7,164.3,147.4,165.4,147.4,166.6z"/>
	<path d="M171.8,177.6v-22.1H186v2.8h-10.9v6h4.5c1.2,0,2.3,0.1,3.2,0.4c0.9,0.3,1.9,0.8,2.5,1.3c0.7,0.5,1.2,1.3,1.6,2.1
		c0.4,0.8,0.5,1.7,0.5,2.8s-0.1,2-0.5,2.8c-0.4,0.8-0.9,1.5-1.6,2.1c-0.7,0.5-1.6,1.1-2.5,1.3c-0.9,0.3-2,0.4-3.2,0.4L171.8,177.6
		L171.8,177.6z M175.1,167.2v7.6h4.9c0.7,0,1.2-0.1,1.7-0.3c0.5-0.3,0.9-0.5,1.3-0.8c0.4-0.4,0.7-0.8,0.8-1.2
		c0.1-0.4,0.3-0.9,0.3-1.5c0-1.2-0.4-2.1-1.2-2.8c-0.8-0.7-2-0.9-3.7-0.9h-4.1V167.2z"/>
	<path d="M201.7,174.8L201.7,174.8l0.1-19.3h3.2v19.3h7.7v-19.3h3.2v19.3h2.9v6.9h-3.2v-4h-24.8v-22.1h3.2V175h7.6V174.8z"/>
	<path d="M237.1,161.4l-14,16.5h-1.6v-22.4h3.2v16.8l14-16.8h1.6v22.1h-3.2V161.4z"/>
	<path d="M257.6,155.5v2.8h-9.3v6.7h9.1v2.9h-9.1v6.9h9.7v2.8h-12.8v-22.1H257.6z"/>
	<path d="M287,155.5v2.8h-7.6v19.3h-3.2v-19.3h-7.6v-2.8H287z"/>
	<path d="M302.5,155.5v2.8h-9.3v6.7h9.1v2.9h-9.1v6.9h9.7v2.8h-12.8v-22.1H302.5z"/>
	<path d="M326.8,155.5v22.1h-3.2v-17.2l0,0l-6.8,8.5h-0.5l-6.8-8.5l0,0v17.2h-3.2v-22.1h2.9l7.3,9.1l7.3-9.1H326.8z"/>
	<path d="M338.2,164.8c1.3,0,2.4,0.1,3.3,0.5c0.9,0.4,1.7,0.8,2.4,1.5s1.1,1.3,1.5,2c0.3,0.8,0.5,1.6,0.5,2.5c0,0.9-0.1,1.7-0.5,2.5
		c-0.3,0.8-0.8,1.5-1.5,2c-0.7,0.5-1.5,1.1-2.4,1.3c-0.9,0.3-2,0.5-3.2,0.5h-6.8v-22.1h3.2v9.3h3.5V164.8z M334.8,167.6v7.1h4.1
		c0.7,0,1.3-0.1,1.9-0.3c0.5-0.3,0.9-0.4,1.2-0.8c0.3-0.3,0.5-0.7,0.7-1.1c0.1-0.4,0.1-0.8,0.1-1.2c0-0.5-0.1-1.1-0.3-1.5
		c-0.1-0.4-0.4-0.8-0.8-1.2c-0.3-0.3-0.7-0.5-1.2-0.8c-0.5-0.1-1.1-0.3-1.6-0.3H334.8z M353,155.5v22.1h-3.2v-22.1H353z"/>
</g>
<g>
	<path d="M53,80.1c0-0.1,0.1-0.2,0.2-0.3c-0.2,0.1-0.4,0.1-0.6,0.2c-0.3,0-0.5,0.1-0.7,0.3c0,0.1-0.1,0.1-0.1,0.1c0.4,0,0.9,0,1.3,0
		C53.1,80.2,53,80.2,53,80.1z"/>
	<path d="M33.4,66.5c0.4-0.3,0.7-0.5,1.1-0.7C34,66,33.7,66.2,33.4,66.5C33.3,66.5,33.4,66.5,33.4,66.5z"/>
	<path d="M49.6,67.8c0,0.1-0.1,0.1-0.1,0.1C49.6,68,49.6,68,49.6,67.8z"/>
	<path d="M111,48.2c2.1-3.9,2.5-4,6.8-2.9c1.7,0.5,3.6,0.8,5.5,1.2c0.4,0,1.1-0.1,1.3-0.4c1.1-1.1,2-2.3,2.9-3.5
		c0.7-1.1,0.9-2.4,0.1-3.3c-1.2-1.6-2.5-3.3-4.3-4.4c-5.7-3.5-11.7-6.7-17.7-9.9c-4.1-2.1-8.4-3.7-12.9-4.5
		c-1.9-0.4-3.2,0.3-4.3,1.7c-1.7,2.4-1.7,4,0.3,6.1c1.2,1.3,2.4,2.5,3.7,3.7c0.7,0.7,0.9,1.3,0.5,2.1c-1.5,3.6-2.8,7.2-4.4,10.7
		c-1.7,3.5-3.7,6.7-5.6,10c0,0,0,0,0,0c-0.9-0.2-1.7-0.5-2.7-0.7c-2.7-0.7-5.3-0.9-8-1.3c-0.4,0-0.8-0.1-1.2-0.1c-3.2,0-6.4,0-9.5,0
		c-1.2,0.1-2.5,0.3-3.7,0.5C42.6,55.7,30,62.8,20.1,74.8c-6.3,8.5-10.4,18-12.1,28.6c-0.3,1.7-0.4,3.5-0.5,5.2
		c0,0.3-0.1,0.7-0.1,0.9c0,2.1,0,4.3,0,6.4c0,0.3,0.1,0.5,0.1,0.8c1.1,15.9,8.4,30.3,19.7,40.4l-4.2,7.7c0,0-0.4,3.1-0.2,4.7
		c0.2,1.6,2,13.3,2,13.3s0,0,2-0.4c2-0.4,3.8-0.4,6.1-1.6c2.3-1.1,6.8-6,6.8-6l4.5-7c2.9,1.2,6,2.2,9.1,2.9c2.9,0.7,5.9,0.9,8.8,1.3
		c0.3,0,0.5,0.1,0.8,0.1c2.7,0,5.2,0,7.9,0c1.7-0.3,3.3-0.4,5.1-0.7c16.7-2.7,30-11.1,39.9-24.8c5.3-7.5,8.7-15.9,10-25
		c0.3-1.5,0.4-2.9,0.5-4.3c0-3.2,0-6.5,0-9.7c-0.1-1.2-0.3-2.5-0.4-3.7c-1.3-9.5-4.8-18.1-10.3-25.9c-4-5.5-8.5-10.1-13.6-13.9
		l-0.3,0.3c0.5-0.9,1-1.7,1.5-2.6C105.8,57.4,108.5,52.8,111,48.2z M10.5,103.3c0.1,0,0.1,0,0.3,0c0,0.8-0.1,1.5-0.1,2.3
		c0,1.3,0,2.5,0.1,3.9c0.1,0.8,0.7,1.6,0.8,2.5c0.3,1.3,0.3,2.8,0.4,4.1c0,0.3-0.1,0.7-0.3,1.1c0,0.3-0.1,0.5-0.1,0.7h0.1
		c0-0.1,0.1-0.4,0.1-0.5c0.4,0.7,0.8,1.2,0.1,2c0.1,0,0.1,0,0.3,0c0.1-0.3,0.3-0.4,0.4-0.7c0.4,0.7,0.8,1.3,0.9,2
		c0.1,0.9,0.8,1.5,1.3,1.9c0.7,0.5,1.1,1.3,1.5,2c0.4,0.5,0.8,1.1,1.2,1.6c0.1,0.1,0.1,0.3,0.3,0.3c0.4,1.6,0.9,3.1,0,4.7
		c-0.4,0.8-0.7,1.9-0.3,3.1c0.5,1.5,0.7,3.1,0.9,4.7c0.1,0.4,0.1,0.8,0.1,1.2c0,0-0.1,0-0.1,0.1c-0.1-0.1-0.4-0.3-0.5-0.4
		c-0.7,0.3-0.4,0.8-0.3,1.2c0.3,0.5,0.5,1.1,0.8,1.6c0.1,0.3,0.1,0.4,0.3,0.7C11.1,131.1,8.4,117.7,10.5,103.3z M90.6,26.2
		c-0.4-0.3-0.8-0.4-1.2-0.7c0.5-1.6,1.5-2.4,3.1-2.3c1.9,0.3,3.7,0.4,5.3,1.2c4.4,2.1,8.8,4.4,13.1,6.9c4,2.4,7.7,5.2,11.6,7.9
		c0.7,0.4,1.9,0.8,1.2,1.9c-0.5,1.1-1.5,0.1-2.1-0.1c-5.7-2.4-11.3-4.8-16.9-7.5C99.8,31.3,95.3,28.6,90.6,26.2z M86.2,54.9
		c0.3-0.5,0.8-0.7,1.5-0.3c1.3,0.7,2.7,1.3,4,2c0.9,0.5,1.3,0.3,1.5-0.8c0.1-1.3-0.4-2.1-1.6-2.5c-1.1-0.4-2.1-0.9-3.3-1.5
		c1.1-1.7,2-3.5,3.1-5.6c1.6,1.1,3.2,2.1,4.8,3.2c0.5,0.3,1.2,0.4,1.7,0.7c0.3-0.7,0.7-1.3,0.5-1.9c-0.3-1.6-1.6-2.3-2.8-3.1
		c-0.8-0.5-1.6-0.9-2.4-1.3c0.5-2.4,0.8-2.5,2.9-1.7c1.1,0.5,2.1,1.2,3.3,1.7c0.3,0.3,1.1,0.3,1.2,0c0.3-0.4,0.5-1.1,0.4-1.5
		c-0.4-1.2-1.3-2-2.7-2.4c-0.8-0.3-1.7-0.5-2.7-0.8c0.7-1.7,1.3-3.5,2-5.1c0.1-0.1,0.9-0.3,1.2-0.1c2.8,1.3,5.5,2.8,8.3,4.1
		c1.1,0.5,2.1,1.1,3.2,1.6c0.9,0.4,1.1,0.8,0.5,1.7c-3.5,6.1-6.8,12.1-10.1,18.3c-1.7,3.2-3.5,6.3-5.2,9.5
		c-1.6-1.2-10.8-4.9-13.3-6.4c0.3-0.6,0.7-1.2,1-1.9c1.7,0.9,3.3,2,4.9,2.9c0.4,0.3,1.1,0.4,1.5,0.3c0.3,0,0.5-0.8,0.4-1.1
		c-0.4-0.8-0.9-1.7-1.6-2.3c-1.2-0.8-2.5-1.3-4-2.1C84.9,57.6,85.5,56.2,86.2,54.9z M67.5,62c-0.4,0.5-0.8,0.5-1.3-0.1
		C66.6,61.8,67,61.8,67.5,62z M66.3,62.5c-0.3,0.4-0.7,0.7-1.1,1.2c-0.3-0.5-0.4-1.1-0.7-1.7C65.2,62.2,65.9,61.8,66.3,62.5z
		 M58.2,56.1c0,0,0,0.1,0.1,0.1c-0.7,0.3-1.5,0.5-2.3,0.8C56.4,56.2,57.4,56.2,58.2,56.1z M55,57.8c0.5,0.5,0.9,0.3,1.5,0
		c0.8-0.5,2.7-0.4,3.3,0.1c0.4,0.3,0.3,0.5,0,0.7c-0.3,0.1-0.5,0.1-0.9,0.1c-0.3,0-0.5,0-0.8,0.1c0.9,0.1,2,0.4,2.9,0.5
		c0.3,0,0.8-0.1,0.8,0.4c0,0.1-0.5,0.3-0.8,0.5c0.3,0.1,0.7,0.3,1.1,0.4c-0.1,0-0.1,0.1-0.3,0.1c-0.9,0.3-1.9,0.4-2.7,0.8
		c-0.3,0.1-0.5,0.4-0.9,0.8c-0.1,0-0.3,0-0.5-0.1c-0.1,0.3-0.3,0.5-0.3,0.7c-0.3,0.1-0.5,0.1-0.7,0.3c-0.3,0.3-1.3,0.5-1.6,0.3
		c-0.1,0.3-0.3,0.4-0.4,0.7c0,0-0.3-0.1-0.4-0.1c-0.1,0.8-0.5,1.2-1.2,1.1c0-0.1,0.1-0.4,0.3-0.7c-0.3,0.1-0.4,0.3-0.5,0.4
		c-0.1,0.1-0.3,0.1-0.4,0.3c0.1,0.1,0.3,0.3,0.4,0.4c-0.1,0-0.1,0.1-0.1,0.1c-1.1,0.3-2,0.5-3.1,0.1c-0.3-0.1-0.8,0.1-1.1,0.3
		c-0.8,0.3-1.6,0.4-2.4,0.3c-0.5,0-1.1,0.3-1.5,0.5c-1.1,0.5-2.1,1.1-3.2,1.7c-0.3,0.1-0.4,0.3-0.7,0.4c0-1.6,1.1-2.4,2.1-3.2
		c0.8-0.7,1.7-1.2,2.7-1.7c0.5-0.3,1.2-0.4,1.7-0.5c0.3-0.1,0.5-0.1,0.8-0.3c-0.1-0.1-0.3-0.1-0.4-0.4c0.4-0.1,0.8-0.3,1.2-0.4
		c0,0.1,0.1,0.1,0.1,0.3c0.1,0,0.1,0,0.1-0.1c0.7-1.2,2-1.1,2.9-1.7c0.4-0.3,0.8-0.3,1.1-0.5c0.3-0.1,0.4-0.5,0.5-0.7l-0.1-0.1
		c0.7-0.3,1.2-0.4,1.9-0.7c0.3-0.1,0.5,0.1,0.9,0.1s0.8,0,1.2-0.1c0-0.1,0-0.1,0-0.3c-1.1,0-2.1,0-3.3,0c0.1-0.3,0.4-0.5,0.5-0.8
		C54.7,57.8,54.8,57.7,55,57.8z M49.8,69.4c-0.3,0-0.5-0.4-0.9-0.5c0.2-0.3,0.5-0.6,0.7-0.9c0,0-0.1-0.1-0.2-0.1
		c0.4-0.1,0.7-0.3,1.1-0.4c-0.1,0.3-0.1,0.4-0.1,0.5c0.7,0,1.3,0,2,0c0.3,0.7,0.3,0.9-0.4,1.1C51.2,69.3,50.4,69.4,49.8,69.4z
		 M50.4,77.2c-0.7,0.3-0.5,0.8-0.9,1.2c-0.1,0.3-1.7,0.9-2.1,0.7c-0.1,0-0.1-0.4-0.1-0.5c0.8-0.3,0.8-1.1,1.1-1.6l0.1,0.1
		c0.3-0.1,0.5-0.4,0.8-0.4c0.4-0.1,0.8-0.1,1.1-0.1L50.4,77.2z M52.4,58.9c0.3-0.5,1.1-1.1,2-1.1C53.6,58.1,53.2,59,52.4,58.9z
		 M51.1,57.7c1.1-0.4,2.4-0.7,3.6-1.1c0,0.1,0,0.1,0.1,0.3c-0.5,0.1-1.1,0.3-1.5,0.4c0,0,0,0,0,0.1c0.1,0,0.3,0,0.4,0.1
		c-0.7,0.1-1.1,1.1-2,0.5c0.4-0.1,0.7-0.4,0.9-0.5c0,0,0,0,0-0.1c-0.5,0.1-1.1,0.3-1.6,0.4V57.7z M49.4,58.4c0.5,0,1.1-0.1,1.6-0.3
		v0.1c-0.5,0.1-1.1,0.3-1.6,0.4C49.4,58.5,49.4,58.5,49.4,58.4z M42.7,62.1c0.3-0.3,0.4-0.7,0.8-0.1c0,0,0.1,0,0.3,0
		c0.4-0.1,0.8-0.1,1.2-0.4c0.1-0.1,0.7,0,0.5-0.5c0.1,0,0.3-0.1,0.4-0.1c0.5,0,1.9-0.5,2.3-1.1c-0.8,0.3-1.6,0.5-2.3,0.7
		c-0.4,0.1-0.8,0-1.1,0.1c-0.4,0.1-0.7,0.4-1.1,0.5c-0.3,0.1-0.4,0.1-0.7,0.3L43,61.3c0.4-0.1,0.7-0.4,1.1-0.7c-0.3,0-0.4,0-0.5,0
		v-0.1c1.9-0.7,3.6-1.5,5.6-2.1c0.1,0.8-0.4,0.8-0.8,0.9c-0.4,0.1-0.7,0.3-1.1,0.5c1.6-0.3,2.9-1.2,4.7-1.2
		c-0.5,0.3-0.7,1.3-1.5,0.9c-0.5,0.4-1.1,0.7-1.6,1.1c-1.3,0.9-3.1,1.2-4.3,2.5c-0.3,0.3-0.9,0.3-1.5,0.3c0.3-0.1,0.5-0.4,0.8-0.5
		c0-0.1-0.1-0.1-0.1-0.3c-0.8,0.5-1.6,1.1-2.4,1.6l-0.1-0.1c0-0.1,0.1-0.3,0.1-0.4c-0.4,0.3-0.7,0.5-1.1,0.8
		c0.4-0.8,1.2-1.2,1.9-1.7C42.3,62.5,42.4,62.2,42.7,62.1z M25.5,74.5c0.4-0.3,0.8-0.5,1.2-0.8c-0.4-0.3-0.8-0.1-1.2,0
		c-0.1,0-0.3,0.1-0.4,0.3c-0.7,0.5-1.3,1.1-2,1.6c2.7-3.3,5.9-6.3,9.3-8.9c0,0.1,0,0.3,0,0.3c0.3-0.2,0.6-0.3,0.9-0.5c0,0,0,0-0.1,0
		c0.9-0.7,1.9-1.3,2.8-1.9l0.1,0.1c-0.6,0.4-1.2,0.8-1.7,1.2c2.1-1.1,4.2-2.3,6.3-3.4l0.1,0.1c-0.9,1.5-2.7,2-3.9,3.2
		c0.1,0,0.4,0,0.5-0.1c0.1-0.1,0.4-0.1,0.7-0.1c-0.8,0.7-1.7,1.3-2.5,2.1c-0.5,0.5-0.9,1.1-1.5,1.6c-0.7,0.8-1.2,1.6-2,2.3
		c-0.5,0.4-1.1,0.8-1.6,1.3c-0.1,0.1-0.1,0.5-0.3,0.7c0.1,0.4-0.1,0.5-0.3,0.7c-0.4,0.5-0.8,0.9-1.2,1.3c0.4-0.5,0.3-1.1,0-1.7
		c0-0.1,0.1-0.3,0.3-0.4c0.9-0.5,1.7-1.1,2.7-1.7c0-0.1,0-0.1-0.1-0.3c-0.4,0.1-0.7,0.1-1.1,0.3c-0.1-0.4-0.1-0.7-0.3-1.2
		c-0.4,0.1-0.8,0.3-1.3,0.4c0.3,0.1,0.4,0.1,0.8,0.3c-0.4,0.3-0.7,0.5-0.9,0.7c-0.5,0.3-1.3,1.2-1.5,1.6c-0.1,0.1-0.3,0.4-0.4,0.5
		l0.1,0.1c0.3-0.1,0.4-0.3,0.7-0.4c-0.4,1.2-1.5,0.7-2.1,1.1C25.6,74.6,25.6,74.5,25.5,74.5z M37.3,173.1c-0.5,1.5-3.2,3.7-3.9,4.2
		c-0.7,0.4-4.7,1.3-4.7,1.3l2.8-10.5l-2.5,0.8l-1.5,4.8l-0.8,2.1c0,0-1-5.4-1.1-7.6c0-1.7,2.8-6.8,4.1-8.9c3.5,2.8,7.3,5.2,11.4,7.1
		C39.8,168.6,37.7,172.1,37.3,173.1z M91.3,142.7c-0.1-0.1-0.3-0.1-0.3-0.3c0,0.1-0.1,0.1-0.1,0.1c-0.3,0.8-0.3,1.6-0.7,2.3
		c-0.8,1.7-1.7,3.3-2.5,4.9c-0.4,0.7-1.7,1.2-2.4,0.9c-0.1,0-0.4-0.1-0.4-0.3c-0.4-0.5-0.3-2.1,0.3-2.7c0.7-0.7,0.9-1.3,0.7-2.3
		c-0.3-0.8,0.4-1.7,1.2-2.1c0.8-0.4,1.6-0.9,2.3-1.3c0.1-0.1,0.1-0.3,0.3-0.4c0.1-0.3,0.4-0.4,0.5-0.7c0.1-0.3,0.4-0.5,0.5-0.8
		c0.1-0.1,0.3-0.4,0.4-0.7C91.5,140.6,91.7,141.9,91.3,142.7z M114.2,116.5c-0.7-1.1-0.4-2.3-0.4-3.5
		C114.7,113.6,115.7,116,114.2,116.5z M123.4,120c0,0.5,0,1.1,0.1,1.5c-0.1,0-0.1,0-0.3,0c-0.3-1.5-0.5-2.9-0.8-4.4
		c-0.3-1.5-0.9-2.8-1.6-4.1c0.4-0.1,0.5-0.3,0.8-0.3c0.4,0.7,0.9,1.3,1.3,2c0.3,0.4,0.3,0.8,0.4,1.3c0,0.1,0,0.3,0,0.3
		C124.1,117.6,123.3,118.8,123.4,120z M120.7,95.2c0.1,0.5,0.3,1.1,0.4,1.6c-0.1-0.1-0.1,0-0.3,0c-0.1-0.5-0.3-1.1-0.4-1.6
		C120.6,95.2,120.6,95.2,120.7,95.2z M109.5,74.4c0.7,0.8,1.2,1.7,1.7,2.7c0.1,0.3,0.3,0.4,0.5,0.7c0,0,0.3,0,0.4,0
		c2.7,3.5,5.3,7.2,6.9,11.3c0.5,1.3,0.8,2.8,1.1,4.3c0.1,0.3-0.1,0.7-0.1,1.1c0.1,1.6,0.5,3.1,1.5,4.4c1.1,1.6,1.5,3.6,1.5,5.6
		c0,0.8,0,1.5,0,2c-0.5-0.8-1.1-1.6-1.6-2.5h-0.1c0,0.1,0,0.3,0,0.4c0.1,0.7,0.1,1.3,0.3,2c0.3,1.1,0.5,2.3,0.8,3.3
		c0,0.1,0.1,0.1,0.1,0.3c0.3,0.3,0.5,0.5,0.5,0.9c0.3,1.2,0.3,2.3,0.5,3.6c-0.8-0.5-0.8-1.2-0.8-1.7c-0.3-1.2-0.4-2.3-1.1-3.3
		c-0.4-0.7-0.3-1.5-0.4-2.3c-0.1-0.9-0.4-1.9-0.7-2.8c-0.1-0.4-0.3-0.9-0.4-1.3s-0.4-0.8-0.7-1.2c0,0.4-0.1,0.8-0.1,1.2
		c0,0.1-0.1,0.3-0.3,0.3c-0.1-0.1-0.3-0.1-0.3-0.3c-0.1-0.4-0.3-0.9-0.4-1.3c-0.3-0.7-0.7-1.3-1.3-1.9c-0.3-0.3-0.5-0.7-0.8-1.1
		c-0.1-0.3-0.3-0.5-0.4-0.8c-0.1,0.5-0.3,0.9-0.5,1.3c0,0.1-0.1,0.3-0.3,0.4c-0.5,0.3-0.5,0.7-0.4,1.1c0.1,0.5,0.3,1.1-0.1,1.5
		c-0.1,0.1-0.1,0.5-0.1,0.8c-0.1,0.7-0.1,1.2-0.4,1.9c-0.1,0.7-0.3,1.5-0.7,2c-0.5,0.9-0.1,1.7,0,2.5c0.1,0.4,0.1,0.8,0.1,1.3
		c0,0.4,0.1,0.9,0.1,1.3c0,0.3,0,0.5,0,0.7c-0.1,0.7-0.4,1.3-0.5,2c-0.1,0.3-0.3,0.4-0.4,0.5c-0.1-0.1-0.4-0.3-0.5-0.4
		c-0.3-0.5-0.4-0.9-0.5-1.5c-0.8-1.5-1.6-2.9-2.3-4.5c-0.7-1.5-1.1-2.9-1.7-4.4c-0.3-0.5-0.4-1.1-0.7-1.6h-0.1c0,0.1,0,0.3,0.1,0.4
		c0.3,0.5-0.1,0.9-0.5,1.1c-0.1,0.1-0.5,0-0.8-0.1c-0.3-0.1-0.5-0.5-0.8-0.7c0.3-0.3,0.4-0.5,0.7-0.8v-0.1c-0.5,0.4-0.9,0.1-1.5-0.3
		c-0.7-0.4-1.2-0.8-1.7-1.3c-0.1-0.1-0.3,0-0.4,0c-0.9,0.3-1.9,0.8-2.8,0.9c-1.1,0.1-2.1,0.1-3.3,0.1c-0.1,0-0.4-0.4-0.5-0.5
		c-0.3-0.3-0.4-0.4-0.7-0.8c-0.3,0.8-1.3,1.2-2,0.9c-0.7-0.3-1.3-0.5-1.9-0.8c-0.1-0.1-0.3-0.3-0.4-0.5c-0.3-0.4-0.5-0.8-0.9-1.1
		c-0.3-0.3-0.8-0.4-1.1-0.5c-0.3,0.4-0.5,0.7-0.9,1.1c0.7,0.7,1.5,1.5,2.1,2.1c0.1,0.1,0.3,0.3,0.3,0.5c0.3,0.4,0.4,0.8,0.7,1.2
		c0-0.4,0.1-0.7,0.1-1.2c0.5,0.4,0.5,0.8,0.5,1.3c0,0.5,0.4,0.8,0.8,0.7c1.7,0,1.9-1.5,2.5-2.7c0.1,0.3,0.1,0.5,0.1,0.8
		c0.3,0.9,0.7,1.5,1.7,1.5c0.8,0,0.9,0.8,1.6,1.1c0.1,0,0.1,0.4,0,0.5c-0.3,0.5-0.3,1.2-0.8,1.7c-0.1,0.1-0.1,0.5-0.1,0.8
		c0,0.1,0.1,0.4,0.1,0.4c-0.4,0.5-0.8,0.9-1.2,1.5c-0.1,0.1-0.4,0.1-0.4,0.3c-0.1,1.1-1.2,0.9-1.7,1.5c-0.4,0.3-0.8,0.4-0.8,1.1
		c0,0.1-0.3,0.4-0.4,0.5c-0.4,0.3-0.9,0.5-1.5,0.8c-0.1,0.1-0.4,0.1-0.5,0.3c-0.8,0.8-1.7,1.2-2.8,1.6c-0.5,0.1-0.9,0.5-1.3,0.8
		c-0.7,0.3-0.9,0.1-1.1-0.7c0-0.3-0.3-0.5-0.3-0.9c-0.1-0.7-0.1-1.2-0.4-1.9c-0.1-0.4-0.5-0.9-0.8-1.3c-0.3-0.4-0.7-0.9-0.9-1.3
		c-0.3-0.4-0.5-0.9-1.1-1.1c-0.8-0.4-1.1-1.1-1.2-1.9c-0.1-0.8-0.5-1.5-1.2-1.9c-0.1-0.1-0.4-0.3-0.5-0.4c-0.7-0.9-1.2-1.9-1.9-2.7
		c-0.1-0.3-0.3-0.7-0.4-0.9c-0.1,0.1-0.3,0.3-0.4,0.4c0-0.3,0-0.7,0.1-0.9h-0.1c-0.1,0.4-0.1,0.9-0.3,1.5c-0.9-0.3-1.1-1.2-1.7-1.9
		c0.1,0.3,0.3,0.7,0.4,0.9c0.7,1.1,1.3,2.3,2,3.3c0.3,0.4,0.5,0.7,0.7,1.1l0.1,0.1c-0.3,0.9,0.7,1.2,1.1,1.7
		c0.4,0.5,0.7,1.1,0.7,1.7c0.1,0.9,0.4,1.7,1.2,2.3c0.4,0.3,0.7,0.9,0.8,1.5c0.3,0.8,0.8,1.3,1.5,1.6c0.7,0.3,1.2,0.8,1.7,1.3
		c0.1,0.1,0.4,0.4,0.5,0.5c0.5,0.4,0.7,0.7,0.1,1.2c0.3,0.3,0.5,0.5,0.8,0.8c0.4,0.4,0.8,0.4,1.3,0.1c1.1-0.4,2.1-0.8,3.2-1.2
		c0.5-0.3,1.1-0.5,1.5-0.7c0.1-0.1,0.3-0.1,0.4-0.1c0,0.1,0.1,0.3,0.1,0.4c0.1,1.3-0.4,2.5-0.9,3.9c-0.8,1.9-1.5,3.7-2.9,5.2
		c-0.3,0.3-0.7,0.5-0.9,0.8c-1.1,1.2-2.3,2.3-3.3,3.5c-0.4,0.4-0.7,0.8-1.1,1.2c-0.9,0.9-1.3,2.1-1.9,3.2c-0.1,0.1-0.1,0.5,0,0.7
		c0.7,0.5,0.3,1.1,0.4,1.7c0.1,0.7,0,1.3,0.8,1.7c0.1,0.1,0.3,0.3,0.3,0.5c0,1.1,0.1,2.1,0,3.2c-0.1,0.7-0.8,1.2-1.2,1.7
		c-0.1,0.1-0.4,0.3-0.7,0.4c-1.3,0.3-2.3,1.5-3.3,2.1c-0.1,0.1-0.3,0.3-0.5,0.4c-0.4,0.1-0.4,0.4-0.3,0.8c0.3,0.7,0.5,1.3,0.4,2.3
		c-0.1,0.5-0.4,0.7-0.8,0.9c-0.5,0.1-0.9,0.4-1.5,0.5c-0.3,0.1-0.4,0.3-0.4,0.8c0,0.7-0.3,1.3-0.9,1.7c-0.3,0.1-0.5,0.4-0.8,0.7
		c-0.9,0.8-1.9,1.6-2.9,2.1c-0.9,0.7-2.1,0.7-3.3,0.7c-0.9,0-1.9,0-2.8,0.3c-0.9,0.3-1.6,0-2.1-0.8c0-0.1-0.1-0.1-0.3-0.3
		c0,0,0.1,0,0.1-0.1c-0.1-0.3,0-0.7-0.3-0.9c-0.8-0.9-1.6-1.7-2.3-2.7c-0.3-0.3-0.4-0.5-0.5-0.9c-0.3-0.9-0.5-1.9-0.8-2.8
		c0-0.1-0.1-0.3-0.3-0.4c-0.8-1.1-1.7-2-2.4-3.2c-0.3-0.5-0.3-1.3-0.3-2.1c0-0.5,0.3-1.1,0.5-1.6c0.1-0.4,0.4-0.7,0.7-0.9
		c0.5-0.5,0.7-1.2,0.4-1.7c-0.1-0.3-0.4-0.7-0.5-0.9c0-0.3,0-0.4,0-0.7c0-0.1,0-0.3,0-0.4c-0.4-1.1-0.8-2.1-1.3-3.1
		c-0.4-0.8-1.2-1.3-1.7-2.1c-0.5-0.7-0.9-1.3-1.3-1.9c0.5-0.5,0.8-1.2,0.8-1.9c0-0.5,0.3-0.9,0.3-1.5c0.1-0.7,0.1-1.2-0.7-1.5
		c-0.1,0-0.1-0.1-0.3-0.3c-0.1-0.3-0.3-0.4-0.8-0.4c-0.5,0.1-1.2,0.1-1.7,0.1c-0.5,0-0.7-0.4-0.8-0.8c-0.3-1.1-0.9-1.5-2-1.6
		c-1.6-0.1-2.9,0.5-4.5,0.8c-0.3,0-0.5,0-0.8-0.1c-1.2-0.7-2.4-0.8-3.7-0.4c-0.7,0.3-1.1,0-1.6-0.4c-0.8-0.8-1.6-1.7-2.3-2.7
		c-0.4-0.4-0.7-0.9-1.1-1.3l-0.1-0.1c0.1-1.2-0.8-2.1-1.3-3.2c-0.3-0.5-0.5-0.8-0.8-1.2c-0.1-0.3-0.3-0.7-0.3-1.1
		c0-0.5,0-1.2,0.1-1.9c0.7-1.2,1.5-2.4,1.3-4c0-0.3,0.1-0.4,0.1-0.7c0-0.3,0.1-0.7,0-0.9c-0.3-0.5,0-0.9,0.3-1.5
		c0.8-1.1,1.6-2.1,2.5-3.2c0.5-0.5,1.1-1.2,1.7-1.6c0.5-0.4,1.2-0.4,1.9-0.7c0.7-0.4,1.1-0.8,1.3-1.7c0.1-0.9,0.9-1.9,1.9-2.1
		c0.9-0.3,1.5-0.8,2-1.5c0.1-0.3,0.3-0.4,0.7-0.7c0.1,0.9,0.7,0.9,1.2,0.9c0.3,0,0.4,0.1,0.7,0.1c0.3,0,0.7,0.1,0.9,0
		c1.3-0.7,2.8-0.9,4.3-0.9c0.3,0,0.7,0.1,0.9,0.1c0.1,0,0.4,0,0.5,0c0.3,0,0.7,0,0.9,0c0.7,0,1.2-0.1,1.9-0.1c0.1,0,0.4,0,0.5,0.1
		c0.1,0.1,0.4,0.3,0.7,0.4c0,0-0.1,0.1-0.3,0.3c-0.1,0.1-0.1,0.4-0.1,0.4c0.5,0.7,0.1,0.9-0.3,1.3c-0.5,0.5-0.5,0.5,0.1,0.8
		c0.1,0.1,0.3,0.4,0.4,0.4c0.4,0.1,0.9,0.3,1.3,0.4c0.8,0.3,1.6,0.3,2,1.2c0.1,0.3,0.4,0.4,0.7,0.5c0.7,0.3,1.2,0.5,1.9,0.8
		c0.3,0.1,0.5,0.1,0.8,0.1c0.3-0.1,0.5-0.5,0.5-0.8c0-1.1,0.8-1.7,1.9-1.6c0.3,0,0.5,0.3,0.8,0.4c0.1,0,0.1,0.1,0.1,0.1
		c0.8,0.3,1.6,0.4,2.4,0.7c0.7,0.1,1.5,0.4,2.1,0.5c0.3,0,0.7,0,0.9-0.1c0.5-0.1,1.2-0.5,1.6-0.4c0.5,0.1,0.9,0.3,1.5,0.3
		c0.5,0,0.9-0.3,1.1-0.8c0.3-0.8,0.5-1.7,0.7-2.5c0.1-0.3-0.1-0.7-0.1-1.1c0-0.4,0-0.8,0-1.1c-0.3,0-0.5,0-0.9,0
		c-0.1,0-0.4,0.1-0.5,0.3c-0.5,0.5-0.9,0.5-1.7,0.1c-0.4-0.3-0.9-0.8-1.3,0.1c0,0.1-0.4,0.3-0.5,0.1c-0.7-0.3-1.2-0.5-1.7-0.8
		c-0.1,0-0.1-0.1-0.1-0.3c-0.3-0.3-0.4-0.7-0.7-0.9c0.4-0.3,0.4-0.4,0-1.1c0,0.3,0,0.4-0.1,0.5c-0.3-0.3-0.4-0.4-0.1-1.3
		c-0.4-0.5-0.9-0.4-1.6-0.4c-0.1,0-0.3,0.1-0.3,0.1c-0.1,0.8-0.5,0.4-0.9,0c0.1,0.7,0.3,1.1,0.3,1.5c0.3,0.1,0.5,0.3,0.9,0.4
		c-0.1,0.3-0.1,0.5-0.3,0.7c-0.1,0-0.3-0.1-0.5-0.1c0,0.1,0,0.4,0,0.5c-0.1,0-0.3,0-0.4-0.1c0.1,0.3,0.1,0.5,0.3,0.9
		c-0.4-0.1-0.9-0.3-1.2-0.4c-0.3-0.3-0.3-0.8-0.3-1.2c-0.4-0.9-1.7-1.6-1.3-2.9c0-0.1-0.1-0.4-0.1-0.5c-0.7-0.5-1.3-0.9-2-1.5
		c-0.4-0.3-0.7-0.7-0.8-1.1c-0.1-0.4-0.3-0.7-0.8-0.1c0-0.3,0-0.5-0.1-0.9c-0.3,0.3-0.7,0.4-0.8,0.5c-0.1,0.4-0.3,0.9,0.3,1.2
		c0.1,0.1,0.4,0.4,0.4,0.5c0.1,0.8,0.7,1.2,1.2,1.2c0.3,0.3,0.4,0.5,0.7,0.7c0.3,0.3,0.7,0.4,0.9,0.7c0.1,0.1,0.3,0.4,0.3,0.5
		c-0.3-0.1-0.7-0.4-0.9-0.5c-0.3,0.3-0.7,0.5-0.3,0.9c0.1,0.1,0,0.4-0.1,0.5c-0.3,0.3-0.5,0.5-0.8,0.9l-0.1-0.1
		c0.1-0.1,0.3-0.3,0.3-0.5c0-0.4,0.1-0.9-0.1-1.2c-0.1-0.3-0.5-0.5-0.8-0.8c-0.7-0.5-1.3-1.1-2-1.7c-0.3-0.3-0.4-0.7-0.5-1.1
		c-0.1-0.7-0.8-0.9-1.5-0.7c-0.4,0.3-0.9,0.5-1.5,0.7c-0.4,0-0.8-0.1-1.2-0.3c-0.8-0.3-1.1,0-1.2,0.8c-0.1,0.8-0.7,0.8-1.2,0.9
		c-0.8,0.1-1.3,0.7-1.7,1.2c-0.1,0.1-0.1,0.5-0.3,0.8c0,0,0.1,0,0.1,0.1c-0.7,0.5-1.3,0.9-2,1.3c-0.1,0.1-0.5,0.1-0.8,0.1
		c-0.7-0.1-1.3-0.1-1.9,0.3c-0.1,0-0.5-0.3-0.5-0.4c0-0.5-0.3-0.8-0.9-0.8c-0.3,0-0.4-0.1-0.5-0.1c0-0.5,0-1.1,0-1.6
		c0-0.3,0.1-0.5,0.3-0.7c0.8-0.8,1.2-1.9,1.3-2.9c0-0.4,0.8-0.7,1.3-0.5c1.1,0.3,2.1,0.5,3.2,0.8c0.1,0,0.5-0.1,0.7-0.3
		c0.3-0.5,0.7-1.1,0.8-1.6c0.3-0.7-0.3-1.7-0.9-2c-0.4-0.1-0.4-0.4-0.3-0.9c0.5,0.1,1.2,0.3,1.7,0.3c0-0.3,0.1-0.5,0.1-0.8
		c0.7,0.4,1.6,0.3,2.1-0.4c-0.9,0-1.8,0-2.7,0c0.4-0.3,0.9-0.5,1.5-0.8c-0.1-0.1-0.4-0.3-0.8-0.5c0.5-0.1,1.1-0.3,0.9-1.1
		c0.9,0.1,0.9,0.1,1.1-1.1c-0.1,0-0.4-0.1-0.7-0.1c0.1-0.3,0.3-0.5,0.4-0.7c0,0,0,0-0.1-0.1c-0.1,0.1-0.3,0.1-0.4,0.3
		c0.1-0.3,0.3-0.4,0.3-0.5c0-0.1,0-0.1-0.1-0.3c0.1-0.3,0.1-0.5,0.3-0.8c0.7,0.1,0.9-1.2,1.9-0.5c-0.1,0.1-0.4,0.3-0.7,0.5
		c0.4,0.1,0.7,0.1,1.1,0.3c-0.4,0.4-0.8,0.7-0.9,0.9c0.3,1.1,0.4,1.9,0.5,2.9c0,0,0.3,0.1,0.4,0.3c0,0.3-0.3,0.5-0.4,0.7
		c0,0-0.1,0.1-0.1,0.1c0.4-0.2,0.8-0.5,1.2-0.9c0.3-0.3,0.7-0.4,1.1-0.5c0.4-0.1,0.8,0,1.2-0.1c0.1,0,0.4-0.3,0.5-0.4
		c0.1-0.3,0.1-0.7,0-1.1c-0.1-0.7,0.1-1.1,0.8-1.2c0.3-0.1,0.4-0.3,0.8-0.4c-0.1,0.7-0.1,1.2-0.7,1.6c-0.1,0.1-0.3,0.7-0.1,0.8
		c0.3,0.3,0.4,0.7,0.9,0.5c0.3-0.1,0.7-0.3,0.9-0.3c0,0.7,0.4,0.7,0.9,0.5c0.4-0.1,0.7-0.3,1.1-0.4c0.4-0.1,0.8-0.4,1.1,0.1
		c0.1,0.1,0.4,0,0.5,0c0.3-0.1,0.5-0.3,0.8-0.4c0.1-0.5,0.1-1.1,0.4-1.6c0.1-0.4,0.4-0.5,0.8-0.1c0.1,0.1,0.4,0.1,0.7,0.1
		c0-0.3,0-0.5,0-0.8c0-0.1-0.3-0.4-0.3-0.5c0.1-0.1,0.4-0.3,0.5-0.4c0.4,0,0.8,0,1.1,0c0.4-0.1,0.9-0.3,1.3-0.4
		c-0.8-0.7-1.6-0.3-2.4-0.1c-0.4,0.1-0.9,0.1-1.2,0c-0.7-0.3-0.7-1.7-0.1-2.1c0.4-0.4,0.8-0.7,1.2-1.1c0.1-0.1,0-0.5-0.1-0.5
		c-0.5-0.3-1.3,0-1.3,0.5c-0.1,0.5-0.4,0.7-0.8,0.9c-0.3,0.1-0.5,0.3-0.8,0.5c-0.5,0.5-0.5,1.2,0,1.7c0.1,0.1,0.1,0.3,0.3,0.4
		c-0.4,0.3-0.8,0.4-0.9,0.7c-0.3,0.4-0.5,0.8-0.7,1.3c-0.1,0.4-0.4,0.5-0.7,0.7C61,77,60.9,77,60.7,77.1c-0.2-0.9-0.3-1.8-0.4-2.7
		c-0.9,0.1-1.6,1.5-2.7,0.4c0.1-0.4,0.1-0.9,0.3-1.3c0.1-1.1,0.9-1.5,1.7-1.9c1.2-0.4,2.1-1.1,3.1-2c0.1-0.1,0.4-0.3,0.5-0.5
		c0.3-0.3,0.4-0.7,0.5-0.9c0-0.1-0.1-0.1-0.1-0.3c0.3,0,0.4,0.1,0.7,0.1c0.3-0.4,0.5-0.9,1.3-0.7c0.1,0,0.4-0.1,0.5-0.3
		c0.9-0.4,1.9-0.4,2.9-0.3C69,66.9,69,67,69,67c1.3,0.4,2.5,0.7,3.9,1.1c0.3,0.1,0.4,0.5,0.7,0.7c-0.3,0.1-0.7,0.5-0.9,0.5
		c-0.7,0-1.3-0.1-1.9-0.3c0.3,0.4,0.5,0.9,0.9,1.3c0.3,0.3,0.8,0.5,1.3,0.4c-0.3-0.3-0.5-0.4-0.8-0.5c0,0,0-0.1,0.1-0.1
		c0.4,0.1,0.8,0.1,1.5,0.3c-0.1-0.3-0.3-0.5-0.4-0.7c0.4-0.4,0.7-0.9,1.5-0.7c-0.3-0.4-0.5-0.9-0.8-1.5c0.4,0.1,0.7,0.1,1.1,0.3
		c-0.1,0.3-0.3,0.4-0.4,0.4c0.7,0.5,0.7,0.5,1.1-0.1c0.1-0.2,0.4-0.4,0.6-0.6c0.3,0,0.7-0.1,1-0.2c0.3-0.1,0.5-0.3,0.8-0.5
		c0.1-0.1,0.3-0.1,0.4-0.1c0.1,0,0.3,0,0.5,0.1c0-0.1-0.1-0.1-0.1-0.2c0.4-0.1,0.8-0.1,1.3-0.2c1.3,0.3,3,1,4.7,1.6c0,0,0,0,0,0
		c2.3,0.9,4.6,1.9,5.5,2.5c1.9,1.1,3.7,2.1,4.5,2.1c0.9,0,2.4,0.6,3.3-1.6c0.9-1.6,1.8-3.1,2.6-4.7C104,68.7,107,71.3,109.5,74.4z
		 M56,89.7c0.4,0.8,0.1,1.6-0.9,2.1c0-0.5,0-0.8,0.1-1.1c0-0.3,0-0.5,0-0.8C55.5,89.8,55.8,89.8,56,89.7z M56.6,88.1
		c-0.1,0.5-0.3,0.9-0.5,1.3C55.5,88.6,55.6,88.4,56.6,88.1z M58.1,92.7c0,0,0.1-0.1,0.2-0.1c0.7,0,1.2,0,1.9,0
		c0,0.3-0.1,0.7-0.1,0.9c-0.1,0.4-0.3,0.4-0.5,0.3c-0.4-0.3-0.8-0.5-1.2-0.8C58.2,92.9,58.2,92.8,58.1,92.7z M66.7,95.3
		c0.7,0,1.3,0.1,2,0.3C68,96,67.2,95.9,66.7,95.3z M73.8,95.9c0-0.1,0-0.3,0-0.3c0.4-0.1,0.8-0.3,1.2-0.4l0.1,0.1
		c-0.1,0.1-0.4,0.4-0.5,0.5C74.3,96,74,95.9,73.8,95.9z M60.5,77.2c-0.1,0-0.1,0.1-0.2,0.1c0.1,0,0.1,0,0.1,0
		c-0.1,0.2-0.2,0.5-0.4,0.8c-0.4-0.8-0.4-0.8,0.5-1.1C60.5,77.1,60.5,77.2,60.5,77.2z M60.8,77.5c0.3,0.1,0.2,0.1,0,0.1
		C60.8,77.5,60.8,77.5,60.8,77.5z"/>
</g>
</svg>
