<?xml version="1.0" encoding="utf-8"?>
<!-- Generator: Adobe Illustrator 21.1.0, SVG Export Plug-In . SVG Version: 6.00 Build 0)  -->
<svg version="1.1" id="Слой_1" xmlns="http://www.w3.org/2000/svg" xmlns:xlink="http://www.w3.org/1999/xlink" x="0px" y="0px"
	 viewBox="0 0 400 200" style="enable-background:new 0 0 400 200;" xml:space="preserve">
<g>
	<path d="M95.7,111.3c1.4-0.3,2.7-1.7,2.8-3c0.6-9.5,0.6-18.9,0-28.4c-0.1-2.3-0.4-4.7-0.7-7.2c-1,0.4-1.8,0.7-2.6,1.1
		c-1.6,0.8-3.2,1.7-4.8,2.5c-1.3,0.7-1.9,1.8-1.9,3.2c0,0.9,0,1.9,0,3.1c-0.5-0.1-1.1-0.1-1.2-0.4c-1.7-3.1-3.4-6.2-4.9-9.4
		c-0.8-1.7-0.6-1.8,0.9-2.8c3.4-2.4,6.9-4.7,10.7-6.3c1-0.4,1.7-0.4,2.5,0.5c2.9,3.2,5.8,6.4,8.9,9.4c3.2,3.1,4.6,6.9,4.5,11.3
		c-0.1,7-0.1,14-0.2,21.1c0,1.7,0.1,1.8,1.8,1.9c0.6,0,1.2,0,2,0c-0.3,0.3-0.5,0.6-0.8,0.9c-1.1,1-2.2,1.9-3.2,2.9
		c-1.4,1.3-2.7,2.7-3.9,4.2c-1.2,1.4-2.6,2.2-4.4,2c-1.6-0.1-2.5-0.8-2.8-2.4c-0.1-0.7-0.2-1.3-0.3-2.1c-0.3,0.2-0.5,0.3-0.8,0.5
		c-1.7,1.3-3.3,2.6-5.1,3.8c-0.7,0.4-1.6,0.6-2.4,0.6c-2,0-3.2-1-3.8-3.1c-1.4-5.1-3.2-10.1-4.8-15.2c-0.5-1.5-0.2-2.9,0.7-4
		c1.2-1.5,2.5-2.9,3.8-4.3c0.3-0.3,0.6-0.5,0.8-0.9c-2.7,0.3-5.3,0.8-7.7,2.1c-0.2,0.1-0.4,0.6-0.4,0.9c0,7.2,0,14.5,0,21.7
		c0,5.9,0,11.9,0.2,17.8c0.1,2.2,0.6,4.5,1.1,6.6c0.4,1.6,1.5,2.8,3,3.7c0.4,0.2,0.9,0.8,0.8,1.2c-0.1,0.9-1,0.5-1.5,0.5
		c-3.6-0.4-7.2-0.9-10.8-1.1c-3.6-0.2-7.2,0-10.7,0.1c-0.9,0-1.2-0.5-1.5-1c-0.4-0.8,0.3-0.9,0.7-1.1c3.5-2,4.6-5.4,4.9-9.1
		c1-10.1,0.7-20.2,0.2-30.3c0-0.4-0.1-0.9-0.2-1.1c-2.5,1.2-4.9,2.4-7.4,3.4c-1.6,0.7-3.3,1.1-5,1.5c-0.7,0.2-0.9,0.4-0.9,1.1
		c0.1,7.4,0.1,14.9,0.2,22.3c0,0.8,0.1,1.7,0,2.5c-0.2,2.3,0.9,3.8,2.8,4.9c0.6,0.3,1.1,0.8,1.6,1.4c-8.7-1.5-17.5-1.1-26.2-1.4
		c-0.1-0.1-0.2-0.2-0.3-0.3c0.3-0.4,0.6-0.8,1-1.1c0.7-0.4,1.4-0.7,2.1-1.1c2.3-1.4,3.6-3.4,3.6-6.1c0.1-6.6,0.1-13.3,0.1-19.9
		c0-0.4-0.5-0.9-0.8-1.1c-2.2-1.1-4.4-2.2-6.6-3.2c-2.7-1.2-4.6-3.2-6.1-5.7c-0.9-1.5-1.7-3.2-2.6-4.8c3.4-1.6,6.8-2.1,10.2-2.5
		c0.1,0.1,0.1,0.2,0.2,0.3c-0.3,0.3-0.6,0.7-1,1c-1.9,1.1-3.9,2.2-6,3.4c3.7,3.3,7.9,5.4,12.4,7.3c0-0.7,0.1-1.3,0.1-1.8
		c-0.3-9.3-0.5-18.6-0.8-27.9c-0.1-2.8-0.3-5.7-0.3-8.5c0-2.7-1.3-4.3-3.5-5.4c-0.3-0.1-0.5-0.3-0.8-0.4c0.2-1,0.9-0.9,1.6-0.9
		c4.8,0,9.7,0,14.5,0c2.1,0,4.1,0,6.4,0c-0.3,0.5-0.5,1-0.9,1.4c-1.4,1.2-1.8,2.8-1.8,4.6c0,3.2-0.1,6.3,0,9.5
		c0.2,8.2,0.4,16.5,0.7,24.7c0,0.7,0.1,1.3,0.2,2.3c1.3-0.6,2.6-0.9,3.6-1.6c3-1.8,5.8-3.7,8.8-5.6c0.6-0.4,0.8-0.8,0.8-1.6
		c0-11.4-0.3-22.8-1.2-34.2c-0.1-1.2-0.8-2-1.7-2.6c-0.5-0.3-0.8-0.8-1.1-1.4c7,0.8,14,0.3,21.1-0.3c-0.2,0.4-0.3,0.7-0.4,0.9
		c-2.1,2.6-3.2,5.6-3.3,8.9c-0.1,8.2,0,16.4,0,24.6c0,0.2,0,0.4,0.1,0.7c6.3-1.4,12.6-1.8,19-1c-0.1,0.3-0.1,0.5-0.2,0.6
		c-1.6,1.4-3.3,2.7-4.9,4.1c-0.3,0.3-0.5,0.8-0.5,1.2c0.4,6.1,2.3,11.9,4,17.7C95.6,111.2,95.7,111.3,95.7,111.3z"/>
	<path d="M207.5,160.3c-2.7-16.6-5.5-33.2-8.2-49.8c0.1-0.1,0.2-0.1,0.3-0.2c1.2,1.3,2.4,2.6,3.6,3.9c0.1,0,0.2-0.1,0.3-0.1
		c-1-10.5-2.9-20.9-4.6-31.7c1.3,0.6,2.3,1,3.2,1.4c0.9,0.4,1.8,1,2.6,1.5c0.1,0,0.2-0.1,0.3-0.1c-1.9-14.7-3.8-29.4-5.6-44.2
		c6.4,0.1,12.6,0.3,18.9,0.4c0,1.9,0,4,0,6.2c0.6-0.1,1.2-0.2,1.7-0.4c2.2-0.8,4.4-1.6,6.6-2.4c1.9-0.7,2.2-0.7,3.5,0.9
		c3.7,4.4,7.3,8.9,10.9,13.3c1.4,1.7,2,3.6,1.7,6c-0.7,6.8-1.2,13.7-1.8,20.5c-0.1,0.7,0,1.1,0.8,1.2c0.6,0.1,1.2,0.4,1.8,0.6
		c1.5,0.4,1.8,0.5,2.2-1c0.7-2.3,2.2-3.6,4.2-4.6c3.3-1.8,6.7-3.7,10-5.5c2-1.1,3.9-1.1,5.8,0.4c2.2,1.7,4.5,3.3,6.6,5.1
		c2.1,1.8,2.7,4.2,3,6.9c0.8,6.4,1.8,12.7,1.6,19.2c-0.1,2.5-0.4,5-0.6,7.6c-0.4,3.3-2.2,5.6-4.9,7.2c-2.5,1.5-5.1,2.8-7.8,3.8
		c-2.7,1.1-5.3,1-7.7-1.2c-2.5-2.2-5.1-4.3-7.7-6.4c-2.6-2.1-3.6-4.9-3.6-8.2c0-6.3,0-12.5,0-18.8c0-0.9-0.2-1.4-1.1-1.5
		c-0.1,0-0.2-0.1-0.3-0.1c-1.8-0.8-3.2-0.9-5,0.6c-3.5,2.9-7.8,4.1-12.2,4.7c-0.7,0.1-1.2-0.2-1.6-0.8c-1.6-2.7-3.3-5.3-4.9-8
		c-0.2-0.4-0.5-0.7-0.9-1c0,1.1-0.1,2.1,0,3.2c0.4,7.1,0.9,14.2,1.3,21.2c0,0.8,0.2,1.6,0.2,2.4c0,0.4-0.2,0.9-0.3,1.3
		c-0.1,0-0.2,0-0.3,0c-1.4-2.8-2.8-5.5-4.2-8.3c-0.1,0-0.2,0-0.4,0c0,10.5,0,21,0,31.6c-0.2,0.1-0.4,0.1-0.6,0.2
		c-1.5-2.3-2.6-4.9-4.1-7.6c-0.9,10.4-1.2,20.6-2.5,30.7C207.7,160.3,207.6,160.3,207.5,160.3z M228.8,81.6c0-0.3,0-0.6,0-1
		c-0.1-3.4-0.1-6.8-0.2-10.2c-0.2-6.5-0.7-13-1.8-19.4c-0.2-1.1-0.7-1.3-1.6-1.1c-1.7,0.4-3.4,0.7-5.1,1.1c-1.8,0.4-1.8,0.5-1.8,2.4
		c0,9.3,0.1,18.6,0.2,28c0,0.4,0,0.7,0.1,1.1C221.9,82.2,225.3,81.9,228.8,81.6z M263.9,88.8c-2.7-0.6-4.9,0.6-7.1,1.5
		c-0.9,0.4-1.2,0.8-1.2,1.7c0,9.1,0.5,18.2,1.3,27.2c0,0.3,0.1,0.7,0.3,1c1.6,2.8,2.5,3,5.3,1.5c0.3-0.1,0.6-0.2,0.8-0.5
		c0.4-0.5,1-1,1.1-1.5c0.3-1.5,0.5-3,0.7-4.6C266.1,106.4,265.3,97.6,263.9,88.8z M255.6,87.7c6.1-2.9,8.4-5.5,7.5-8.6
		c-2.4,1.7-4.7,3.3-7,5c-0.2,0.2-0.4,0.5-0.4,0.8C255.6,85.7,255.6,86.6,255.6,87.7z M221.4,84.8c-0.1,0.1-0.1,0.2-0.2,0.4
		c1.4,1.6,2.8,3.2,4.3,4.7c0.2,0.2,1,0.2,1.1,0.1c0.8-0.8,1.4-1.7,2-2.7c0.1-0.3-0.2-1.2-0.4-1.2C226,85.6,223.7,85.2,221.4,84.8z"
		/>
	<path d="M364.1,73.5c2.4-1.5,4.7-2.8,6.9-4.3c1.3-0.9,1.9-0.9,2.7,0.5c2,3.4,3.9,6.8,5.7,10.3c1.2,2.3,0.8,3.3-1.1,5
		c-3.3,2.7-6.7,5.4-10.1,8.1c-0.4-0.4-0.7-0.7-1.1-1.1c0.7-1,1.5-1.9,2.1-2.9c0.3-0.4,0.5-1,0.4-1.4c-1-3.4-2.1-6.8-3.2-10.3
		c-0.7,0.5-1.4,0.9-2,1.3c-0.2,0.2-0.3,0.6-0.3,0.9c0.2,8.3,0.5,16.7,0.8,25c0.2,6,0.5,12.1,0.7,18.1c0.1,2.1,1,3.6,2.7,4.7
		c2.6,1.6,5.4,2.2,8.3,2.7c0.2,0,0.4,0.1,0.7,0.1c0,0.4,0,0.8,0,1.3c-2.3,0-4.6,0-6.9,0c-5.5,0-10.7-1.7-15.9-3.1
		c-2.1-0.5-4.2-0.7-6.4-0.8c-1-0.1-1.4-0.3-1.5-1c1.2-0.8,2.4-1.4,3.4-2.2c2.2-1.8,3-4.3,3-7.1c0-7.5-0.1-15-0.1-22.4
		c0-4.6-0.2-9.1-0.2-13.7c0-0.4,0-0.9,0-1.4c-1.1,0-2,0-3.1,0c0.1-0.4,0.1-0.8,0.2-1c0.4-0.6,0.9-1.3,1.5-1.8
		c3.5-3.1,7-6.2,10.6-9.2c0.3-0.3,1-0.6,1.1-0.5c0.4,0.3,0.7,0.8,0.8,1.3C363.8,70.1,363.9,71.7,364.1,73.5z"/>
	<path d="M318.2,129.9c1,0,2.1,0,3.1,0c3.6,0.2,7.2,0.4,10.7,0.6c0.2,0,0.5,0,0.7,0.1c0.4,0.1,0.9,0.3,1.3,0.5
		c-0.2,0.4-0.4,0.9-0.7,1.3c-2,2.2-4.2,4.4-6.2,6.6c-1.4,1.6-1.7,1.8-3.8,1.1c-5.4-2-10.8-4-16.1-6.2c-1.3-0.5-2.4-1.4-3.6-2.1
		c-0.7-0.5-1.1-1.1-1.1-2.1c0-7.2,0-14.5-0.1-21.7c-0.1-9.3-0.3-18.6-0.4-27.9c0-0.1,0-0.2-0.1-0.5c-1.2,0-2.4,0-3.7,0
		c-0.5,0-1.3-0.3-1.3-0.5c0-0.5,0.2-1.2,0.5-1.6c1.7-2,3.6-3.9,5.3-5.9c3.1-3.7,5.5-7.7,7.7-12c0.3-0.5,0.6-1.1,0.9-1.5
		c0.1-0.2,0.5-0.4,0.7-0.3c0.2,0.1,0.4,0.4,0.4,0.7c0.2,2.1,0.3,4.2,0.4,6.3c0.2,3.3,0.3,6.6,0.5,9.8c0,0.3,0.1,0.5,0.1,0.8
		c2.7,0,5.4,0,8.1,0c0,1.2,0,2.3,0,3.5c0,0.2-0.6,0.5-0.9,0.5c-2.3,0.2-4.5,0.3-6.9,0.4c0,0.4-0.1,0.8-0.1,1.1
		c0.3,16.5,0.5,33,0.7,49.5c0,1.7,0.5,2.8,2.2,3.5c1.8,0.7,3.5,1.8,5.2,2.7c0.7,0.4,1.3,0.4,1.9-0.1c1.1-0.9,2.2-1.8,3.2-2.7
		c0.7-0.7,0.6-1.1-0.3-1.4c-2.3-0.5-4.6-1-6.9-1.5c-0.5-0.1-1-0.4-1.5-0.5C318.1,130.3,318.1,130.1,318.2,129.9z"/>
	<path d="M297.6,134c-1.1,1.4-1.1,1.4-2.5,0.6c-3.4-1.8-6.8-3.6-10.3-5.3c-2.8-1.4-4-3.5-3.9-6.6c0.5-9.5,0.8-19.1,1.2-28.6
		c0.3-6.7,0.2-13.4-0.5-20.1c0-0.4-0.1-0.7-0.2-1.2c-2.9,0-5.8,0-8.7,0c-0.3-1.1-0.1-1.6,0.8-2.2c6.7-4,12.3-9.1,17-15.3
		c0.4-0.5,0.8-1.1,1.3-1.6c0.2-0.2,0.6-0.3,0.8-0.5c0.2,0.3,0.4,0.6,0.5,1c0.1,0.3,0,0.7,0,1c0.1,3.4,0.1,6.9,0.2,10.3
		c0,0.8,0.1,1.5,0.1,2.4c2,0,4,0,6,0c0.2,1.7,0.4,3.3,0.6,5c-1.9,0-3.6,0-5.3,0c-1,0-1.4,0.3-1.4,1.4c0,6.4,0,12.8-0.2,19.1
		c-0.4,11-0.9,22-1.3,33c-0.1,1.8,0.3,3.3,1.8,4.4C295,131.9,296.2,132.9,297.6,134z"/>
	<path d="M154.2,81.5c0.3-0.1,0.6-0.4,0.9-0.4c5.7-0.3,11.3-0.5,17-0.8c0,0,0.1,0,0.3,0.2c-0.6,0.4-1.1,0.7-1.6,1
		c-1.7,0.8-1.9,1.3-1.5,3.1c1.1,4.2,2.3,8.4,3.4,12.6c0.1,0.5,0.3,0.9,0.6,1.7c3.7-6.8,8.2-12.8,9.9-20.2c-1-0.5-2.1-1.1-3.2-1.7
		c0-0.1,0.1-0.2,0.1-0.3c4.1,0.2,8.2,0.5,12.3,0.7c0,0.1,0,0.2,0,0.3c-8.2,15.7-16.1,31.5-26.1,46.2c-1.6,2.4-3.3,4.7-5,7
		c-0.3,0.4-0.9,0.7-1.4,0.7c-10.8,0-21.1-2.2-30.8-7.1c-0.9-0.4-1.1-0.8-0.6-1.7c1.4-2.5,3.3-4.5,5.3-6.4c0.2-0.2,0.5-0.3,0.7-0.2
		c3.1,0.3,6.2,0.6,9.3,0.9c0.1,0,0.2,0.1,0.5,0.3c-0.5,0.2-0.8,0.4-1.2,0.5c-1.7,0.5-3.4,1-5.1,1.4c-1.2,0.3-1.8,0.9-2.2,2
		c-0.8,2.5-0.8,2.6,1.7,3.1c6.1,1.1,12.3,1.5,18.5,1.2c1-0.1,1.7-0.4,2.3-1.3c2.4-3.9,4.8-7.6,7.2-11.5c0.3-0.5,0.4-1.3,0.2-1.8
		c-2.8-8.9-5.6-17.8-8.4-26.7c-0.5-1.5-1.5-1.9-2.9-2.1C154.2,81.7,154.2,81.6,154.2,81.5z"/>
	<path d="M331.7,104c0.1,3.2,0.2,6.5,0.5,9.7c0.2,3,1.7,5.2,4.1,7c0.8,0.6,1.1,0.4,1.5-0.4c1.8-4,2.8-8.2,3.7-12.4
		c0.1-0.3,0.3-0.6,0.4-0.9c0.3,0.2,0.8,0.3,1,0.6c1.1,1.6,2.2,3.2,3.2,4.9c0.2,0.3,0,0.9-0.2,1.3c-1.3,1.8-2.7,3.5-4,5.3
		c-0.8,1.1-1.7,2.2-2.5,3.4c-0.6,0.8-1.3,1.3-2.3,1.2c-1.4-0.1-2.7,0.1-4.1-0.1c-0.9-0.1-2-0.5-2.7-1.1c-3.4-3.1-6.8-6.3-10.1-9.6
		c-0.2-0.2-0.4-0.8-0.3-1.1c0.8-5.3,0.4-10.6,0.2-15.8c-0.1-4.4,0.6-8.7,1.1-13c0-0.5,0.4-1,0.7-1.3c3.4-2.8,6.9-5.5,10.3-8.3
		c1.3-1,2.7-1.3,4-0.6c3.2,1.5,6.4,3.2,9.6,4.8c0.3,0.2,0.5,0.6,0.7,1c1.4,3.7,2.7,7.3,4.1,11c0.3,0.7,0.3,1.4-0.2,2
		c-1,1.5-2,3.1-3,4.6c-0.6,0.9-1.3,0.9-2.3,0.7c-3.7-0.9-7.5-1.9-11.2-2.7c-2.3-0.5-2.5-0.2-2.5,2.2
		C331.6,98.8,331.6,101.4,331.7,104C331.6,104,331.7,104,331.7,104z M340.9,91.3c-0.1-0.5-0.1-0.8-0.2-1c-1.8-4.5-3.5-8.9-5.4-13.4
		c-0.2-0.4-0.7-0.9-1-0.8c-0.5,0.1-1,0.5-1.3,0.9c-0.3,0.4-0.4,1-0.5,1.5c-0.2,2-0.5,4-0.6,5.9c-0.1,2-0.2,4-0.3,6.1
		C334.8,90.7,337.8,91,340.9,91.3z"/>
	<path d="M129,81.4c0.2-0.5,0.2-0.5,0.2-0.5c1.8-1.2,1.6-2.8,1-4.6c-0.8-2.3-1.4-4.6-2-6.9c-0.1-0.4-0.2-0.8-0.5-1.1
		c-0.2-0.2-0.6-0.4-0.9-0.3c-0.2,0-0.3,0.4-0.4,0.7c-0.1,0.2,0,0.5,0,0.8c0.3,10.6,0.6,21.1,1.7,31.7c0.3,2.3,0.4,4.7,0.5,7
		c0.1,1.5,0.6,2.7,2.1,3.3c0.3,0.1,0.5,0.5,0.8,0.8c-0.1,0.1-0.1,0.2-0.2,0.3c-6.3,0-12.6,0-19.2,0c0.3-0.4,0.4-0.9,0.7-1.1
		c0.5-0.4,1-0.8,1.5-1.1c1.2-0.7,1.8-1.6,1.7-3.1c-0.1-5.4,0-10.8-0.1-16.2c-0.1-7.3-0.3-14.6-0.4-22c0-0.6-0.1-1.2-0.2-1.8
		c-2.4-0.6-4.9,0.4-7.2-0.3c-0.1-0.2-0.2-0.3-0.2-0.5c0.2-0.1,0.5-0.2,0.7-0.3c4.2-2.9,8.4-5.9,12.6-8.9c1.2-0.8,2.5-0.8,3.6,0.1
		c0.3,0.2,0.4,0.7,0.5,1.1c0.3,2,0.5,4,0.7,6.3c1.1-0.7,2-1.4,3-1.9c0.9-0.5,1.9-1.1,2.9-1.5c1.5-0.5,2.4-0.2,3,1.1
		c1.7,3.9,3.3,7.9,4.8,11.9c0.3,0.9,0,1.7-0.8,2.2c-2.8,1.8-5.7,3.5-8.6,5.2C130.2,81.8,129.6,81.5,129,81.4z"/>
	<path d="M156.6,108.9c-1.4-0.1-2.8-0.2-4.2-0.2c-3.4,0.1-6.9,0.2-10.3,0.3c-1.9,0.1-3.7,0.1-5.3-1.1c0.9-0.8,1.8-1.5,2.7-2.2
		c1.2-1.1,2-2.4,2.2-4.1c0.2-2.8,0.6-5.6,0.7-8.3c0.1-9.3,0.2-18.6,0.2-28c0-0.8,0-1.6,0-2.5c-0.6,0.2-1,0.3-1.5,0.4
		c-0.3,0-0.5-0.1-0.8-0.2c0.1-0.3,0.1-0.6,0.3-0.7c3.4-3.3,6.7-6.6,10.1-9.9c0.3-0.3,0.8-0.6,1.2-0.8c1.1-0.4,1.7,0,1.8,1.2
		c0.1,2,0.1,4.1,0.2,6.1c0,0.6,0.1,1.2,0.2,2c0.5-0.3,0.9-0.5,1.3-0.7c1.6-1,3.1-2.1,4.7-3.1c1.3-0.8,2-0.7,2.7,0.7
		c1.7,3.5,3.3,7.2,5,10.7c0.4,1,0.1,1.7-0.8,2.2c-3,1.9-5.9,3.8-8.9,5.6c-0.8,0.5-0.9,0.4-1.8-0.8c0.1-0.2,0.2-0.4,0.4-0.5
		c1.6-1.2,1.6-2.5,0.9-4.3c-0.7-1.7-1.1-3.4-1.6-5.2c-0.2-0.5-0.4-0.9-1-0.8c-0.7,0.1-1.3,0.2-1.4,1c-0.1,0.9-0.1,1.9-0.1,2.8
		c0,7.2,0,14.5,0.1,21.7c0,4.7,0.1,9.4,0.2,14.1c0,0.8,0.5,1.6,1,2.3c0.5,0.7,1.3,1.1,2,1.6C156.8,108.6,156.7,108.8,156.6,108.9z"
		/>
</g>
</svg>
