<?xml version="1.0" encoding="utf-8"?>
<!-- Generator: Adobe Illustrator 22.1.0, SVG Export Plug-In . SVG Version: 6.00 Build 0)  -->
<svg version="1.1" id="Слой_1" xmlns="http://www.w3.org/2000/svg" xmlns:xlink="http://www.w3.org/1999/xlink" x="0px" y="0px"
	 viewBox="0 0 400 200" style="enable-background:new 0 0 400 200;" xml:space="preserve">
<style type="text/css">
	.st0{fill:#191E1F;}
</style>
<g>
	<path class="st0" d="M56.3,57c-0.4,4.1-0.8,8.3-1.3,12.3c0.3,0.1,0.6,0.3,1,0.3c-1,0.1-2.1,0.2-3.2,0.2c0.2-1.9,0.4-3.6,0.6-5.7
		c-2,0-3.6,0-5.7,0c0.2,1.8,0.3,3.5,0.6,5.5c-0.8,0.1-1.8,0.2-2.3,0.3c-0.3-4.4-0.6-8.7-0.9-13c1.3,0,2.6,0,4,0
		c-0.5,1.7-1,3.5-1.6,5.5c2.4,0,4.1,0,6.3,0c-0.5-2-1-3.7-1.4-5.5C53.7,57,55,57,56.3,57z"/>
	<path class="st0" d="M70.2,74.9c7-4.4,24.3-2.3,29.2,3.4c-1,0.9-1.8,1.7-3.2,3c1.7-0.3,2.9-0.3,4.1-0.5c2.8,6.6,1.3,12.3-5,19.7
		c3.2,5,6.4,10.2,9.7,15.3c1,1.5,1.5,3.5,2.9,4.4c2.4,1.5,5.2,2.6,7.9,3c0.6,0.1,2.3-3.5,2.4-5.5c0.3-10.7,0.2-21.4,0.2-32.1
		c0-5.7-1-7.5-5.9-10.4c2.1-0.2,4.2-0.3,6.3-0.5c2.3-0.2,4.6-0.1,6.8-0.4c6.1-1,12.1-1.2,18.2,0.6c10.3,3.2,16.6,12.3,15.9,24
		c-0.2,4.3-1.1,8.8-2.5,12.9c-3.4,10.4-11.3,14.2-20.6,14.5c-9,0.3-17.9-0.1-26.9-0.4c-1.7-0.1-3.9-0.5-5.2-1.6
		c-5-4.3-8.5-10-11.7-16.5c1.5-0.1,2.5-0.2,3.5-0.3c0-0.3,0-0.5,0.1-0.8c-0.7-0.1-1.4-0.1-2.1-0.2c-1-0.2-2.1-0.1-2.7-0.7
		c-3.5-3.5-4.6-3.9-9.6-2.8c0,5,0,10.1,0,15.2c1.5,0.5,3,1,4.4,1.5c-0.1,0.3-0.1,0.7-0.2,0.9c-5.2,0-10.4,0-15.5,0
		c-0.1-0.3-0.1-0.4-0.2-0.7c0.5-0.4,0.9-0.9,1.4-1.1c2.5-0.8,3.6-2.8,3.6-5.3c0.1-10.7,0-21.5,0.1-32.2
		C75.4,77.4,73.3,75.8,70.2,74.9z M151.4,95.6c-0.2-0.4-0.2-0.8-0.4-1.1c-4-13-10.6-17.9-21.6-16.3c-2.5,0.3-3.4,1.5-3.4,4.1
		c0.1,11,0.2,21.9,0.1,32.9c0,1.6-0.5,3.1-0.9,5c3.1,0.3,6.7,0.9,10.2,1c8.2,0.3,13.5-4.5,14.9-13.3c0.6-3.5,0.6-7,0.8-10.6
		c1.5-0.3,3.2-0.5,4.8-0.8c0-0.2,0-0.4,0-0.6C154.6,95.9,153.1,95.8,151.4,95.6z M81.7,88.5c-0.1,0-0.2,0-0.2,0
		c0,2.6,0.2,5.3-0.1,7.8c-0.2,2.2,0.8,2.9,2.5,3.3c6.3,1,10.5-2.4,11-9.3c0.2-1.9,0-3.8-0.2-5.7c-0.8-6-6-9.8-11.4-8.2
		c-0.7,0.3-1.5,1.6-1.6,2.5C81.6,82.2,81.7,85.3,81.7,88.5z"/>
	<path class="st0" d="M274.4,82.4c-5.7,3.3-4.3,8.4-4.5,12.8c-0.4,7-0.2,14.1-0.2,21c0,3.2,0.3,6.2,3.7,8.2c-3,0.2-6,0.3-9,0.6
		c-0.1,0.3-0.2,0.4-0.2,0.7c2.3,1.2,4.5,2.3,6.8,3.5c-2.7,2.8-7.5,3.1-10.7,1.1c-1.7-1-4.2-1-5.6-2.4c-5.8-5.4-10.2-12.2-14.2-19.8
		c2-0.2,3.4-0.3,4.8-0.4c0-0.3,0-0.7,0-0.9c-0.4-0.2-0.8-0.6-1.1-0.5c-3.3,0.7-6.1,0.8-7.2-3.7c-0.2-0.5-1.4-0.9-2.2-1
		c-2.9-0.1-5.9-0.1-9-0.1c0,7,0,13.7,0,20.7c1,0.3,2.3,0.3,3.3,0.7c0.9,0.3,1.7,1,2.5,1.6c-1,0.3-2.1,0.9-3.1,0.9
		c-2,0-3.9-0.4-5.9-0.4c-3.1,0-6.1,0.2-9.2,0.3c-1,0-2.1,0-3.1,0c-0.1-0.3-0.2-0.7-0.3-0.9c0.8-0.6,1.4-1.4,2.3-1.6
		c2.9-1.1,4.5-3.3,4.6-6.6c0.2-10.5,0.2-21,0.3-31.5c0-2.2,0-4.3,0-6.5c0-8.6-0.2-8.9-7.2-12.6c0.7-0.5,1.3-1.2,1.9-1.2
		c9.4-0.9,19-2.4,28.4-0.1c3.3,0.8,6.2,3.1,10.1,5.2c-2.5,2-3.8,3.1-5.2,4.2c0.1,0.2,0.2,0.4,0.2,0.6c1.4-0.4,2.9-1.1,4.4-1.1
		c0.6,0,1.7,1.2,1.9,2.1c2.3,9.4-0.7,16.8-7.5,23c2.4,4.1,4.5,8.4,7.1,12.2c2.5,3.7,5.4,7.2,8.3,10.6c0.7,0.9,2.7,1.9,3.1,1.6
		c1.1-1,2.4-2.7,2.4-4.1c0.2-8,0-16-0.2-24.2c-0.1-4.3-0.3-8.5-4.5-11.9C265.2,82.4,269.4,82.4,274.4,82.4z M225.7,82.3
		c-0.1,0-0.2,0-0.3,0c0,4,0.2,7.8-0.1,11.8c-0.2,2.4,0.9,3.3,2.8,3.5c8.3,0.9,14.9-1.6,15.5-12.4c0.1-1.4-0.1-2.8-0.2-4.2
		c-0.4-9.8-6.6-15.2-15.5-13.3c-0.9,0.2-2.1,1.6-2.1,2.6C225.6,74.3,225.7,78.4,225.7,82.3z"/>
	<path class="st0" d="M395.3,74.4c-0.3,6.6-0.6,13.5-1,20.3c-0.5,0.1-0.9,0.1-1.3,0.2c-0.3-1-0.8-2.2-0.9-3.2
		c-0.8-10.2-8-14.8-16.7-10.7c-4.8,2.3-6.5,10.8-2.5,16c2,2.7,4.9,4.6,7.6,6.6c3.6,2.8,7.9,4.9,11.2,8.1c9.8,9.6,7.1,29.2-5,34.9
		c-3.5,1.6-7.7,1.4-11.6,1.9c-0.5,0.1-1-0.8-1.5-1.3c-0.8-0.9-1.5-1.7-3.2-3.6c0.7,4.7-0.9,4.1-2.7,3.4c-7.5-2.8-7.7-3-8.1-11.7
		c-0.2-2.9,0-5.8,0-8.7c0.4-0.1,0.8-0.2,1.1-0.3c0.4,0.9,1,1.7,1.1,2.7c2,8.9,8.3,14.4,16.7,13.6c3-0.3,6.7-0.9,8.4-4.9
		c2.1-4.9,3.3-10.2-0.6-14.3c-3.5-3.8-7.9-6.7-12.1-9.6c-4.4-3-8.9-5.8-10.9-11.4c-2.3-6.2-2.5-12.5,0.1-18.5
		c2.9-6.6,11.8-11.6,18.5-10.9C386.1,73.4,390.3,73.9,395.3,74.4z"/>
	<path class="st0" d="M43.9,131.1c0.3,1,1,2.2,0.8,3.1c-0.6,3.8-1.3,7.5-2.3,11.1c-0.3,1.1-1.8,2.6-2.8,2.6
		c-11.4,0-22.8-0.3-34.2-0.5c-0.6,0-1.2-0.3-1.8-0.6c-0.4-0.5-0.8-1-1.3-1.6c0.9-0.3,1.7-0.3,2.6-0.7c3.1-1.3,4.6-3.4,4.4-7.3
		c-0.2-2.8,1-5.6,1.2-8.4c0.3-4.4,0.2-8.7,0.2-13.1c0.1-8.8,0.3-17.6,0-26.4C10.5,81,9.9,72.6,8.8,64.3c-0.2-2-2.7-3.7-4.6-5.9
		c8,0,16.2,0,25.3,0c-1.7,0.9-2.5,1.8-3.6,1.9c-3.9,0.4-5.6,3-5.9,6.9c-0.4,4.4-0.7,8.8-0.7,13.2c0,14.1,0.1,28.4,0.3,42.5
		c0.1,3.3,0.6,6.6,0.9,9.9c0.1,0.7,0.2,1.5,0.2,2.2c-0.6,6.1-0.7,6.3,4.8,7c2.7,0.3,5.6,0.1,8.3-0.3
		C38.5,140.8,39.7,138.7,43.9,131.1z"/>
	<path class="st0" d="M286,85.3c0,10.8-0.2,21.7,0.2,32.6c0.1,2.3,2.7,4.5,4.3,7c-4.4,0-9.3,0-14.2,0c-0.5-0.4-1-0.9-1.3-1.2
		c0.9-0.3,1.7-0.4,2.6-0.7c3.1-0.9,4-3.6,3.9-6.6c-0.1-10.6-0.2-21.2-0.6-31.7c-0.2-7.6-0.4-7.6-6.4-10.3c0-0.3,0-0.7,0.1-0.7
		c3.1-0.3,6.3-0.1,9.3-0.8c4.3-1,5.5,2.2,7.1,5.1c3,5.3,6.1,10.4,9.2,15.7c0.1,0.2,0.3,0.4,0.3,0.6c0.1,4,3.6,5.3,5.3,8.1
		c1.6,2.9,3.8,5.4,6,8.6c0-4.7,0-8.7,0-12.8c-0.1-5.1-0.2-10.2-0.2-15.4c0-4-0.7-7.4-5.1-9c0.2-0.3,0.5-0.5,0.6-0.8
		c4.7,0,9.4,0,14.1,0c0,0.5,0.1,0.9,0.1,0.9c-5.9,2.8-5.2,8.8-5.2,14.1c-0.1,11.2,0.3,22.4,0.4,33.6c0,1.2-0.7,2.4-1.1,3.7
		c-1.3-0.6-3.1-0.7-3.8-1.7c-6.6-9.7-13-19.5-19.4-29.2C289.9,91.4,287.9,88.3,286,85.3z"/>
	<path class="st0" d="M49.1,125.7c-14.4-0.1-24.7-10.9-24.4-26.1c0.2-15.8,9.4-24.7,24-24.8c14.4-0.2,24.4,10.8,24,26.7
		C72.4,114.9,63.7,125.7,49.1,125.7z M48.5,121.6c7.2,0,11.7-2.8,14.4-9.1c3.6-8.5,1.4-21.6-4.5-28.7c-6-7.2-19.7-6.5-23.8,4.1
		c-3.7,9.6-2,18.4,3,26.7C40.3,119.1,44.1,122.1,48.5,121.6z"/>
	<path class="st0" d="M342.7,101c5.3,0,10.6,0,15.8,0c-0.4,4.7-0.8,9.5-1.2,14.2c-0.1,0.7,0,1.5,0,2.2c0.2,6.4,0.2,6.6-5.6,7.8
		c-10.6,2.2-20.3,0.5-27.8-9c-7-9-7.1-24.5-0.6-33.3c4.2-5.8,10-9.2,16.9-9.6c6.4-0.3,12.9-0.1,19.9-0.1c-1.6,6-0.4,11.5-2.8,16.5
		c-0.3-7-3.6-10.9-9.5-12c-2.5-0.4-5.3-0.4-7.9,0c-7.1,1.3-11.7,6.7-12.6,14.4c-0.9,7.8-0.5,15.3,4,21.8c1.3,2,2.9,4.3,4.8,5.1
		c4,1.6,8.4,2.6,12.7,3.4c1.8,0.3,3.8-0.5,1.8-3.4c-0.4-0.6-0.4-1.6-0.4-2.4c-0.1-0.9,0-1.9,0-2.8C350.2,105,350,104.8,342.7,101z"
		/>
	<path class="st0" d="M190.2,111.1c-1.3,0.1-1.9,0-2.4,0.2c-1.8,0.8-5-2.1-5.6,1.9c-0.3,2.2,0.6,4.5,0.9,6.8
		c-1.3,0.1-3.1,0.2-4.6,0.3c1.1-6.3,1.7-12.3,0-18.8c1.4-0.1,3.3-0.2,5.6-0.3c-0.6,0.9-1,1.5-1.3,2c-1.8,4.4-0.8,6.2,3.7,6.3
		c1,0,2.1,0.1,3.7,0.2c-0.5-2.8-1-5.3-1.3-8c-0.2,0.1,0.1-0.1,0.2-0.1c1.5,0,3,0,4.5,0c-1.6,6-1.7,12.2-0.2,18.5c-1.3,0-3.1,0-4.5,0
		C189.4,117.3,189.8,114.5,190.2,111.1z"/>
	<path class="st0" d="M178.1,97.6c-5.2-0.1-9-4.3-9-10c0-5.8,3.8-9.9,9.1-9.8c5.2,0.1,8.9,4.4,8.9,10.3
		C187,93.6,183.3,97.7,178.1,97.6z M172.2,87.4c0.2,1,0.6,2.9,1.3,4.6c1,2.6,2.9,4.1,5.7,3.8c2.9-0.4,4.3-2.4,4.6-5.3
		c0.2-2.1,0-4.3-0.6-6.3c-1-3.6-3.5-5.3-6.4-4.7C173.9,80.2,172.1,82.9,172.2,87.4z"/>
	<path class="st0" d="M210.4,102.3c-0.2,1.6-0.3,2.6-0.4,3c-2.3-0.5-4.5-1-7.1-1.6c-0.2,2.3-0.2,4.1-0.4,6.6c2.5-0.3,4.7-0.5,7-0.9
		c0,0.8,0,2.2,0,2.9c-2.5,0.3-4.6,0.5-6.8,0.8c0.2,1.6,0,3.8,0.9,4.9c1.3,1.8,4.7,0.5,6.9-2.2c0.7,3.6,0,4.7-3.2,4.8
		c-2.9,0-5.9,0-8.7,0c1.7-6.3,1.6-12.2,0.2-18.5C202.4,102.3,206.3,102.3,210.4,102.3z"/>
	<path class="st0" d="M191.5,78c3.2,0,6.3,0,9.4,0c0.6,0,1,0.2,1.8,0.3c0,1.4,0,2.8,0,3.3c-2.1-0.6-4.3-1.2-6.9-2c0,2.8,0,4.7,0,7.4
		c2.1-0.3,4.2-0.6,6.5-0.9c-0.1,1.1-0.2,2.8-0.2,4.1c-2-0.5-3.9-1-7-1.8c0.5,3.7,0.9,6.4,1.2,9.1c-1,0-3,0-4.8,0
		C192.9,91.1,193.4,84.8,191.5,78z"/>
	<path class="st0" d="M169.6,120.5c-1.6,0-3.3,0-4.8,0c2.5-5.3,1-11.1,1.7-17.5c-2.3,0.6-4.1,1.1-5.9,1.6c-0.3-1.7,0.2-2.9,2.5-2.9
		c3.2,0.1,6.3-0.2,9.5,0c0.9,0,1.7,1,2.2,2c-4.8-2-6.1-1.1-6,4.1c0.1,2.6-0.1,5.3,0,7.8C168.8,117.3,169.3,118.8,169.6,120.5z"/>
	<path class="st0" d="M60.2,57.9c6.6-0.9,7.6-0.6,7.7,1.9c-1.5-0.3-3-0.5-4.7-0.8c-0.2,0.9-0.3,1.4-0.4,2c-0.1,0.6,0,1.1,0,2.2
		c1.6-0.1,3-0.2,4.6-0.3c0,0.4,0.1,1.3,0.1,2.2c-1.6-0.2-3-0.4-5.2-0.7c0.4,1.8,0.6,4.1,1,4.1c1.6,0.2,3.3-0.3,4.8-0.5
		c-0.3,2.5-2.5,3.1-8.1,1.7C60.2,65.8,60.2,62,60.2,57.9z"/>
	<path class="st0" d="M42.2,59.2c-3.6-1.5-4.1-1-4.1,3.1c0,2.4,0,4.9,0,7.6c-0.5,0-1.3,0.1-2.1,0.1c0.2-3.7,0.3-7.2,0.5-11.5
		c-1.7,0.3-3,0.6-4.4,0.9c0.5-3,2.8-1.8,4.3-1.8C41.8,57.6,41.8,57.7,42.2,59.2z"/>
</g>
</svg>
