<?xml version="1.0" encoding="utf-8"?>
<!-- Generator: Adobe Illustrator 21.1.0, SVG Export Plug-In . SVG Version: 6.00 Build 0)  -->
<svg version="1.1" id="Слой_1" xmlns="http://www.w3.org/2000/svg" xmlns:xlink="http://www.w3.org/1999/xlink" x="0px" y="0px"
	 viewBox="0 0 400 200" style="enable-background:new 0 0 400 200;" xml:space="preserve">
<g>
	<path d="M192.3,152.8c-0.5,0-0.9,0-1.2,0c-11.6,0-23.3,0-34.9,0c-1,0-1.3-0.3-1.5-1.2c-0.5-2.9-1.1-5.8-1.7-8.7
		c-0.4,0-0.7-0.1-1.1-0.1c-4,0-8.1,0-12.1,0c-0.8,0-1.1,0.3-1.4,1c-0.8,2.7-1.7,5.5-2.5,8.2c-0.1,0.5-0.3,0.8-0.9,0.8
		c-11.4,0-22.8,0-34.2,0c-0.1,0-0.3,0-0.5-0.1c0-12.6,0-25.1,0-37.7c-0.1,0-0.1,0-0.2,0c-0.2,0.8-0.4,1.7-0.6,2.5
		c-2.8,11.5-5.5,22.9-8.2,34.4c-0.2,0.6-0.4,0.9-1.1,0.9c-2.6,0-5.2,0-7.8,0c-0.8,0-1.1-0.2-1.2-1c-2.6-12-5.3-24.1-8-36.1
		c0-0.1-0.1-0.2-0.2-0.6c0,12.6,0,24.8,0,37.3c-6.4,0.1-12.8,0.2-19.2,0.4c0-0.5-0.1-0.8-0.1-1.2c0-34.1,0-68.3,0-102.4
		c0-0.9,0.2-1.2,1.2-1.2c7.3,0,14.5,0,21.8,0c0.3,0,0.6,0,1,0c2.8,14.4,5.6,28.8,8.4,43.2c0.1,0,0.2,0,0.2,0
		c1.2-5.5,2.4-11,3.6-16.5c1.9-8.6,3.8-17.3,5.7-25.9c0.1-0.5,0.2-0.8,0.8-0.8c7.3,0,14.6,0,21.9,0c0.2,0,0.3,0.1,0.6,0.1
		c0,30.8,0,61.5,0,92.3c0.1,0,0.1,0,0.2,0c0.6-4,1.3-7.9,1.9-11.9c1.3-7.9,2.6-15.8,3.8-23.6c1.4-8.6,2.7-17.2,4.1-25.8
		c1.6-10.1,3.2-20.2,4.8-30.3c0.1-0.6,0.3-0.8,0.9-0.8c7.3,0,14.7,0,22,0c0.6,0,0.8,0.2,0.9,0.8c1,6.9,2.1,13.9,3.2,20.8
		c1.4,9.2,2.9,18.5,4.3,27.7c1.5,9.8,3,19.5,4.5,29.3c0.7,4.6,1.4,9.2,2.1,13.8c0,0.3,0.2,0.6,0.3,0.9c0-30.9,0-61.8,0-92.8
		c0.5,0,0.9,0,1.3,0c9.1,0,18.1,0.1,27.2-0.1c3.6-0.1,6.5,1.3,9.3,3.3c4.2,3.1,7,7.3,9,12.1c0.1,0.3,0.2,0.6,0.5,0.8
		c-0.7-5.5-1.4-10.9-2.2-16.5c0.5,0,0.8,0,1.2,0c5.5,0,11.1,0,16.6,0c0.9,0,1.2,0.3,1.3,1.1c1.1,7,2.2,13.9,3.3,20.8
		c1.4,8.8,2.9,17.6,4.4,26.4c0.2,1.4,0.5,2.9,0.7,4.3c0,0.2,0.2,0.4,0.3,0.9c1-6.1,2-12,3-17.8c1.7-9.6,3.3-19.2,5-28.9
		c0.3-1.9,0.6-3.8,0.9-5.7c0.1-0.6,0.3-0.8,0.9-0.8c17.3,0,34.6,0,51.9,0c0.1,0,0.2,0,0.4,0.1c0,6.5,0,13,0,19.6
		c-5.2,0-10.4,0-15.6,0c0,7.2,0,14.3,0,21.5c5,0,9.9,0,14.9,0c0,0.5,0.1,0.8,0.1,1.1c0,6.6,0,13.1,0,19.7c0,0.9-0.2,1.2-1.2,1.2
		c-4.1-0.1-8.1,0-12.2,0c-0.4,0-0.8,0-1.2,0c0,6.7,0,13.3,0,19.9c5.1,0,10.1,0,15.2,0c0,7.1,0,14.1,0,21.2c-11.4,0-22.7,0-34.2,0
		c0-33.1,0-66.1,0-99.2c-0.1,0-0.1,0-0.2,0c-5.8,33-11.6,66.1-17.4,99.2c-0.3,0-0.6,0.1-0.9,0.1c-6.4,0-12.8,0-19.3,0
		c-0.9,0-1.1-0.3-1.2-1.1c-1.8-10.9-3.6-21.8-5.4-32.6c-1.8-10.7-3.5-21.3-5.3-32c0-0.1-0.1-0.1-0.2-0.3c-0.3,1.4-0.5,2.8-0.8,4.1
		c-1.2,5.6-3,11-6.2,15.8c-1.3,2-3,3.7-4.6,5.5c-0.5,0.5-0.6,0.9-0.4,1.5c4.3,12.6,8.5,25.3,12.8,37.9c0.1,0.4,0.2,0.7,0.3,1.2
		c-0.4,0-0.8,0-1.1,0c-5.4,0-10.8,0-16.2,0c-0.8,0-1.2-0.2-1.5-1c-4-10.9-8.1-21.7-12.1-32.6c-0.1-0.2-0.2-0.5-0.5-0.7
		C192.3,129.9,192.3,141.3,192.3,152.8z M192,67c0,10.4,0,20.7,0,31c4.3-0.1,7.9-2.5,9.6-6.5c1.8-4.3,2.4-8.7,1.2-13.2
		c-0.7-2.7-1.6-5.4-3.5-7.6C197.4,68.5,195.1,67,192,67z M151.1,122.3c-1.8-10.4-3.5-20.7-5.2-31.1c-0.1,0-0.1,0-0.2,0
		c-1.5,10.3-3,20.7-4.5,31.1C144.5,122.3,147.7,122.3,151.1,122.3z"/>
	<path d="M313.9,153.1c0-35,0-69.9,0-104.9c5.8,0,11.6,0,17.6,0c0,27.9,0,55.8,0,83.8c5.1,0,10,0,15,0c0,7.1,0,14.1,0,21.1
		C335.6,153.1,324.8,153.1,313.9,153.1z"/>
</g>
</svg>
