<?xml version="1.0" encoding="utf-8"?>
<!-- Generator: Adobe Illustrator 21.1.0, SVG Export Plug-In . SVG Version: 6.00 Build 0)  -->
<svg version="1.1" id="Слой_1" xmlns="http://www.w3.org/2000/svg" xmlns:xlink="http://www.w3.org/1999/xlink" x="0px" y="0px"
	 viewBox="0 0 400 200" style="enable-background:new 0 0 400 200;" xml:space="preserve">
<g>
	<path d="M296.1,63.5c4.7,1.4,9.2,1.5,13.5-1.3c0,7.1,0.1,14.2,0.1,21.4c16.1-0.1,32-0.1,47.9-0.2c0.1,0.1,0.2,0.2,0.2,0.2
		c0.3,2,0.3,2-1.8,2c-3.5,0-7,0-10.4,0c-0.3,0-0.5,0-0.9,0.1c6.8,16.4,13.6,32.8,20.4,49.1c0.1,0,0.2,0,0.3,0.1
		c7-16.4,13.9-32.8,21-49.3c-0.3-0.1-0.5-0.1-0.7-0.1c-3.7,0-7.4,0-11.2,0c-1.2,0-1.2,0-1.2-1.2c0-0.3,0-0.6,0-0.9
		c8,0,16-0.1,24-0.1c0,0.7,0,1.3,0,2c-0.4,0-0.8,0.1-1.1,0.1c-2.2,0-4.5,0-6.7,0c-0.5,0-0.7,0.2-0.9,0.6c-4.5,10.7-9,21.3-13.5,32
		c-4.4,10.4-8.9,20.8-13.2,31.3c-3,7.2-5.7,14.5-8.6,21.7c-1.9,4.8-3.7,9.6-6.2,14.1c-1.8,3.3-3.9,6.4-7.2,8.5
		c-3.4,2.3-7.2,2.7-11.1,2.3c-3.1-0.3-6-1.2-8.2-3.5c-2.9-3-4-6.6-3.2-10.6c0.7-3.5,3.6-5.7,7.2-5.6c1.5,0,3,0.4,4.3,0.9
		c2.7,1.1,3.8,3.8,2.7,6.6c-0.5,1.3-1.2,2.6-1.7,3.9c-0.3,0.8-0.5,1.7-0.5,2.6c-0.1,2.1,1.1,3.1,3.2,3.3c4,0.3,6.9-1.4,9.3-4.5
		c2.7-3.5,4.5-7.3,6.2-11.3c3.2-8,6.4-16,9.5-24c0.2-0.4,0.2-1,0-1.3c-4.6-11.3-9.3-22.7-13.9-34c-4.3-10.6-8.7-21.1-12.9-31.7
		c-0.3-0.8-0.7-1-1.6-1c-5.7,0.1-11.4,0.1-17.1,0.1c-0.7,0-1.3,0-2.1,0c0,0.4,0,0.7,0,1c0.1,16.9,0.1,33.8,0.2,50.6
		c0,2.9,0.3,5.8,1.4,8.6c1.7,4.1,5.2,5.6,9.2,5.2c5.4-0.6,8.6-3.9,10.7-8.6c0.6-1.4,1-3,1.5-4.6c0.5,0.2,1.1,0.3,1.6,0.6
		c0.2,0.1,0.3,0.4,0.3,0.6c-1.2,5.2-3.5,9.6-8.4,12.2c-2,1.1-4.3,1.7-6.6,1.9c-4.7,0.3-9.3,0-13.8-1.6c-5.2-1.9-8.2-5.7-9.1-11.1
		c-0.2-1.5-0.4-3-0.4-4.5c-0.1-16.4-0.2-32.7-0.2-49.1c0-0.3,0-0.6,0-1c-0.8,0-1.5,0-2.2,0c-2.9,0-5.7,0-8.6,0c-1.3,0-1.3,0-1.3-1.4
		c0-0.2,0-0.5,0.1-0.8c4,0,8,0,12.1-0.1C296.1,77,296.1,70.3,296.1,63.5z"/>
	<path d="M107.9,9.3c12.4-0.1,24.6-0.1,36.9-0.2c0,0.7,0,1.3,0,2c-4,0-8.1,0-12.1,0.1c-0.1,0.1-0.1,0.2-0.2,0.3
		c5.4,7.8,10.8,15.5,16.3,23.5c5.7-7.9,11.3-15.8,17-23.8c-0.5,0-0.8-0.1-1.1-0.1c-3.1,0-6.3,0-9.4,0c-1.2,0-1.2,0-1.2-1.2
		c0-0.3,0.1-0.5,0.1-0.8c7.7,0,15.3-0.1,22.9-0.1c0,0.6,0,1.3,0,2c-0.3,0-0.6,0-0.9,0c-2.2,0-4.3,0-6.5,0c-0.6,0-0.9,0.2-1.3,0.6
		c-5.9,8.2-11.8,16.4-17.7,24.6c-0.4,0.6-0.4,1,0,1.6c8.3,11.9,16.5,23.8,24.8,35.7c0.4,0.6,0.8,0.8,1.5,0.8c2.5-0.1,5,0,7.7,0
		c0,0.6,0.1,1.1,0,1.6c-0.1,0.3-0.4,0.5-0.6,0.6c-0.4,0.1-0.8,0-1.2,0c-11.1,0-22.2,0.1-33.3,0.1c-1.9,0-1.9-0.1-1.6-2.1
		c4,0,8,0,12.4-0.1c-6.3-9-12.4-17.9-18.6-26.8c-6.6,9-13.1,17.9-19.8,26.9c4,0,7.7,0,11.6,0c0,0.7,0,1.4,0,2.2
		c-0.5,0-0.9,0.1-1.4,0.1c-6.7,0-13.4,0.1-20.1,0.1c-1.8,0-1.5,0.1-1.5-1.5c0-0.2,0-0.3,0.1-0.6c0.9,0,1.7,0,2.6,0
		c1.6,0,3.3,0,4.9,0c0.6,0,0.9-0.1,1.3-0.6c6.2-8.4,12.3-16.8,18.5-25.1c0.7-0.9,1.3-1.8,2-2.6c0.4-0.5,0.4-0.9,0-1.5
		c-4.5-6.5-9-13-13.5-19.4c-3.1-4.4-6.1-8.8-9.2-13.3c-0.4-0.5-0.8-0.7-1.4-0.7c-2.3,0-4.5,0-6.8,0.1c-0.8,0-1.2-0.2-1.1-1.1
		C108,10,107.9,9.7,107.9,9.3z"/>
	<path d="M112.9,59.1c0.7,0.1,1.4,0.3,2.2,0.4c-0.4,1.2-0.7,2.4-1.2,3.6c-3.5,8.8-9.9,14-19.2,15.5c-8.8,1.4-17.3,0.3-25.3-4
		C60.9,70.1,55.5,63,53.1,53.7c-2-7.8-1.7-15.5,1.3-23.1c1.7-4.2,4-8,7.1-11.4c4.7-5.2,10.4-9,17.2-10.7c10-2.6,19.3-1,27.4,5.5
		c5.5,4.3,8.4,10.2,9.5,17c0.3,1.8,0.4,3.7,0.6,5.6c0,0.3,0,0.6,0,1c-0.6,0-1,0.1-1.5,0.1c-15.4,0.1-30.7,0.1-46.1,0.2
		c-0.8,0-1,0.2-1,1c0.1,4-0.1,8.1,0.1,12.1c0.3,5.5,1.1,11,3.6,16c3.2,6.4,8.5,9.5,15.6,9.8c4.5,0.2,8.9-0.3,13.1-2.1
		c4.9-2.1,8.4-5.7,10.7-10.5C111.6,62.7,112.2,60.9,112.9,59.1z M100.3,35.6c0.1-1.7,0.2-3.3,0.2-4.9c0.1-4.1,0-8.2-1.1-12.2
		c-1.1-3.9-3.3-6.9-7.2-8.2c-2.6-0.9-5.3-0.9-8-0.7c-2.5,0.2-4.8,1-6.9,2.3c-3.5,2.2-5.5,5.6-6.8,9.3c-1.5,4.1-2.1,8.3-2.5,12.6
		c-0.1,0.6-0.1,1.2-0.1,1.9C78.7,35.7,89.4,35.7,100.3,35.6z"/>
	<path d="M43.6,27.3c-1.5,0.3-1.5,0.3-2-1c-1.2-3.4-2.4-6.7-4.4-9.7C34,11.9,29.7,9.6,24,9.7c-3.6,0.1-7,0.6-10.1,2.4
		C8,15.6,7.2,23,9.6,27.2c1.2,2.1,3,3.5,5.1,4.4c3.4,1.4,6.8,2.6,10.3,3.8c4.4,1.6,8.9,2.9,13.2,4.6c3.5,1.4,6.6,3.5,9.1,6.5
		c3.3,4,4.2,8.6,3.5,13.6c-1.4,9.8-9.1,16.9-18.9,18.7c-5.6,1-11.1,0.5-16.4-1.3c-2.4-0.8-4.8-1.6-7.2-2.2c-0.8-0.2-1.7-0.3-2.6-0.3
		c-1.3,0-2.4,0.5-3.1,1.7c-0.4,0.7-1,0.6-1.5,0.5c-0.2,0-0.4-0.5-0.4-0.8c0-2.7,0-5.5-0.1-8.2c0-3.9,0-7.8,0-11.7c0-0.4,0-0.8,0-1.1
		c1.5-0.4,1.6-0.3,2,1c1.5,4.7,3.5,9.1,6.7,12.9c4.2,4.9,9.6,7.5,16,7.8c2.6,0.2,5.2,0,7.6-1c4.2-1.8,6.4-5.1,7.1-9.5
		c0.4-2.7,0.3-5.4-0.8-8c-1-2.4-2.8-4.1-5.2-5.2c-2.6-1.2-5.3-2.1-8-3.1c-4.5-1.6-9.1-3.1-13.5-4.8c-4.8-1.9-8.3-5.3-9.7-10.3
		c-2.1-7.7-1.1-14.8,4.5-20.8c3.6-3.8,8.1-5.9,13.2-6.6c5.4-0.8,10.5,0,15.4,2.2c1.2,0.5,2.6,0.6,3.9,0.7c0.6,0,1.2-0.3,1.7-0.6
		c0.9-0.6,0.9-0.7,2.1-0.5C43.6,15.5,43.6,21.4,43.6,27.3z"/>
	<path d="M254.8,133.8c0.8,0.2,1.5,0.3,2.4,0.5c-0.8,2.1-1.5,4.1-2.5,6c-3.9,7.8-10.4,12-18.9,13.1c-7.5,1-14.8,0.1-21.8-2.8
		c-6.9-2.9-12.4-7.5-16-14.2c-2.2-4.1-3.4-8.5-3.9-13.1c-0.4-3.9-0.4-7.8,0.3-11.6c1.2-6.6,3.9-12.4,8.4-17.4
		c5.8-6.5,13-10.5,21.6-11.8c7.9-1.3,15.7-0.4,22.8,3.5c4.4,2.4,7.5,5.9,8.5,11c0.4,2.3,0.5,4.6-0.7,6.7c-1.7,3-4.6,3.8-7.8,3.7
		c-1.3-0.1-2.6-0.3-3.8-0.8c-2.6-1.1-3.6-3-3-5.8c0.4-2,0.9-4.1,1.5-6c1.6-5.3-1.2-8.3-5.3-9.5c-5.6-1.7-11.2-1.6-16.5,1.2
		c-3.3,1.7-5.4,4.7-6.9,8.1c-1.8,4.1-2.7,8.5-3.2,13c-0.6,5.3-0.6,10.6-0.4,15.9c0.2,5.4,0.8,10.7,2.7,15.7c1.8,4.9,4.7,9,9.8,11.1
		c3.4,1.4,7,1.7,10.6,1.5c2.8-0.2,5.6-0.7,8.3-1.7c6.3-2.4,10.3-6.9,12.7-13c0.2-0.5,0.4-1,0.6-1.5
		C254.4,134.9,254.6,134.4,254.8,133.8z"/>
	<path d="M265,86c-3.1,0-6.1,0-9.1,0c-0.4,0-0.8,0-1.2,0c-2,0-2,0-1.7-2.1c8.5,0,16.9-0.1,25.5-0.1c0,0.4,0,0.8,0,1.1
		c0.1,20.8,0.2,41.7,0.3,62.5c0,0.4,0,0.8,0,1.2c0,0.5,0.2,0.6,0.6,0.6c3.4,0,6.7-0.1,10.1-0.1c1.4,0,1.4,0,1.4,1.5
		c0,0.2,0,0.4,0,0.7c-12.6,0.1-25.1,0.1-37.7,0.2c0-0.6,0-1.3,0-2.1c4,0,7.9,0,12-0.1C265.2,128.2,265.1,107.2,265,86z"/>
	<path d="M122.2,85.2c-0.2-0.6-0.2-0.9,0.5-0.9c3.1,0,6.3,0,9.4,0c0.1,0,0.2,0,0.3,0.1c0,8.1,0.1,16.3,0.1,24.6
		c0.5-0.9,0.9-1.5,1.3-2.2c2.4-3.5,5.8-5,9.9-4.9c1.4,0.1,2.9,0.3,4.3,0.8c3.1,1.1,4.8,3.8,4.8,7.6c0,5.8,0.1,11.5,0.1,17.3
		c0,0.3,0,0.6,0,1.1c1.6,0,3.2,0,4.8,0c0,0.4,0,0.6,0,0.9c-5,0-10,0-15.1,0.1c0-0.3,0-0.5,0-0.9c1.6,0,3.1,0,4.8,0c0-0.4,0-0.7,0-1
		c0-6.5-0.1-12.9-0.1-19.4c0-0.5,0-1-0.1-1.4c-0.6-3.2-2.9-4.7-6.3-3.9c-4.1,0.9-7.3,4.4-8.1,8.9c-0.2,1-0.3,2-0.3,3
		c0,4.3,0,8.6,0,12.9c0,0.3,0,0.6,0.1,0.9c1.6,0,3.1,0,4.7,0c0,0.3,0.1,0.6,0.1,0.9c-0.3,0-0.5,0.1-0.7,0.1c-4.2,0-8.3,0-12.5,0.1
		c-0.5,0-1,0.1-1.5,0.3c-3,1-6,0.8-8.8-0.6c-2.1-1.1-2.7-3.1-2.8-5.3c0-4.5,0-9-0.1-13.6c0-2.3,0-4.5,0-6.9c-1.6,0-3.2,0-4.8,0
		c0-0.4,0-0.6,0-1c1.6,0,3.2,0,4.8,0c0-2.7,0-5.3,0-8c1.9,0.5,3.6,0.6,5.4-0.6c0,2.9,0,5.7,0,8.6c3,0,6,0,9,0c0,0.4,0,0.6,0,1
		c-3,0-5.9,0-8.9,0c0,0.5,0,0.8,0,1.1c0,6.5,0,12.9,0.1,19.4c0,1.2,0.2,2.4,0.6,3.5c0.7,1.9,3.2,2.8,4.8,1.8
		c0.8-0.5,1.7-1.1,2.3-1.9c0.6-0.8,0.9-1.9,1.3-2.8c0-0.1,0.1-0.2,0.2-0.3c0.3,0.1,0.5,0.2,0.9,0.3c-0.3,0.8-0.5,1.5-0.8,2.1
		c-0.3,0.6-0.7,1.2-1.1,1.9c0.8,0,1.5,0,2.3,0c-0.1-14.5-0.1-29-0.2-43.6C125.4,85.2,123.8,85.2,122.2,85.2z"/>
	<path d="M241.6,75.4c0-0.4,0-0.8,0-1.1c0-6.5-0.1-12.9-0.1-19.4c0-0.5,0-1-0.1-1.4c-0.6-3.3-3-4.8-6.6-3.8c-3.7,1-6.1,3.4-7.3,7
		c-0.5,1.5-0.8,3.1-0.8,4.7c-0.1,4.5,0,9,0,13.5c0,0.1,0,0.3,0.1,0.6c1.4,0,2.7,0,4.1,0c0.7,0,0.9,0.2,0.6,1c-0.3,0-0.7,0-1,0
		c-3.5,0-7,0-10.5,0.1c-0.5,0-1,0.1-1.5,0.3c-1.9,0.7-3.7,0.7-5.6,0.2c-1.9-0.5-2.9-1.8-3.7-4.4c-0.1,0.1-0.2,0.2-0.3,0.3
		c-1.1,2.5-3,3.8-5.6,4.3c-2.2,0.4-4.4,0.4-6.5-0.3c-2.2-0.7-3.8-2.1-4.1-4.5c-0.3-2.6,0.1-5.1,2.6-6.5c1.3-0.8,2.8-1.3,4.2-1.8
		c2-0.7,4.1-1.4,6.2-2c2.4-0.8,3.5-2.5,3.5-5c0-1.3,0-2.6-0.2-3.9c-0.3-2.3-1.5-3.5-3.8-3.6c-1.1-0.1-2.3,0.1-3.4,0.4
		c-1.6,0.4-2.2,1.5-2.1,3.2c0.1,0.9,0.2,1.8,0.3,2.7c0.1,1.3-0.4,2.2-1.7,2.4c-0.8,0.1-1.7,0-2.5-0.2c-1.1-0.3-1.5-1.4-1.3-2.9
		c0.3-2.7,1.9-4.5,4.3-5.5c3.7-1.5,7.6-1.6,11.3,0c3.2,1.3,4.5,4.1,4.6,7.4c0.1,5.2,0,10.4,0.1,15.5c0,0.8,0.1,1.5,0.3,2.3
		c0.3,0.9,0.8,1,1.6,0.7c0.4-0.1,0.8,0,1.2-0.1c0.6-0.1,1.2-0.2,1.9-0.3c0.4,0.1,0.9,0.2,1.5,0.4c0-8.5-0.1-16.9-0.1-25.4
		c-1.6,0-3.1,0-4.8,0c0-0.3,0-0.6,0-0.9c3.4,0,6.7,0,10.1,0c0,2.1,0,4.2,0,6.4c0.1,0,0.1,0,0.2,0c0.4-0.8,0.8-1.6,1.4-2.3
		c2.7-3.9,6.5-5.3,11.1-4.8c1,0.1,2.1,0.3,3,0.7c3.1,1.2,4.7,3.8,4.8,7.6c0,5.8,0.1,11.5,0.1,17.3c0,0.3,0,0.6,0,1.1
		c1.6,0,3.2,0,4.8,0c0,0.3,0,0.6,0,0.9c-5,0-10,0-15,0.1c0-0.3,0-0.5-0.1-0.9C238.4,75.5,240,75.4,241.6,75.4z M209.4,61.3
		c-1.1,0.6-1.8,1.1-2.7,1.5c-1.4,0.6-2.7,1.1-4.1,1.7c-4.3,1.6-5,5.3-4,8.8c0.4,1.4,1.4,2.3,2.8,2.6c3.5,0.9,6.9-1.1,7.4-4.9
		C209.3,67.8,209.3,64.6,209.4,61.3z"/>
	<path d="M273.2,53.7c0-7.2-0.1-14.6-0.1-22c-1.6,0-3.1,0-4.6,0c-0.2-0.6-0.3-1,0.5-1c3.2,0,6.3,0,9.5,0c0.1,0,0.1,0,0.3,0.1
		c0,7.4,0.1,14.8,0.1,22.2c0,7.4,0.1,14.8,0.1,22.3c1.6,0,3.2,0,4.8,0c0,0.4,0,0.6,0,0.9c-3.3,0-6.7,0-10.1,0c0-1.7,0-3.4,0-5
		c-0.1,0-0.1,0-0.2,0c-0.2,0.5-0.4,0.9-0.7,1.4c-1.9,3.6-5.4,5.3-9.7,4.4c-6.2-1.2-10.9-6.5-11.7-13.1c-0.7-6.1,3-12.3,8.8-14.6
		c3.8-1.5,7.6-1.4,10.9,1.5C271.8,51.5,272.5,52.7,273.2,53.7z M273.2,62.8c0-1.2,0.1-2.5,0-3.7c-0.2-1.7-0.4-3.4-1-4.9
		c-1.2-3.3-4.4-5.1-7.8-4.8c-3.5,0.3-5.3,2-6.1,5.9c-0.9,4.1-0.6,8.2-0.3,12.4c0.1,1.4,0.4,2.8,0.8,4.2c0.6,2,1.7,3.6,3.8,4.1
		c4.3,1.1,8.3-0.2,9.9-4.9C273.2,68.2,273.3,65.5,273.2,62.8z"/>
	<path d="M181.1,122.4c0.2,0,0.4,0.1,0.8,0.2c-0.8,3-2.4,5.4-5.2,6.8c-8.6,3.9-18.6-1.5-20-10.9c-1.1-7.9,4.3-15.5,12.2-16.6
		c7.6-1.1,13.8,4.2,13.4,12.1c-0.3,0-0.6,0-1,0c-5.8,0-11.7,0.1-17.5,0.1c-0.5,0-0.9-0.1-0.9,0.6c-0.1,3.3-0.1,6.7,1,9.9
		c1.3,3.6,4.2,5.4,8.1,5.1c2.9-0.3,5.4-1.1,7.2-3.6C179.9,124.9,180.4,123.7,181.1,122.4z M163,113c4.4,0,8.6,0,12.9-0.1
		c0-1.8,0.1-3.6-0.1-5.4c-0.2-1.9-0.9-3.8-3-4.5c-2.5-0.9-6.3-0.5-8.1,2.8C163.5,108,163.2,110.4,163,113z"/>
	<path d="M396.5,90.2c1.6,0,2.9,1.2,3,2.8c0,1.5-1.2,2.8-2.8,2.9c-1.7,0.1-3-1.1-3-2.7C393.7,91.4,394.7,90.3,396.5,90.2z M398.9,93
		c0-1.4-1.1-2.5-2.4-2.4c-1.3,0-2.3,1.1-2.3,2.5c0,1.4,1.1,2.4,2.4,2.4C397.9,95.5,398.9,94.4,398.9,93z"/>
	<path d="M397.1,93.4c0.3,0.4,0.5,0.8,0.7,1.2c-0.1,0.1-0.1,0.1-0.2,0.2c-0.2-0.3-0.4-0.6-0.7-0.8c-0.2-0.2-0.5-0.4-0.7-0.6
		c-0.1,0.3-0.2,0.6-0.3,0.9c0,0.2-0.1,0.3-0.2,0.5c-0.1,0-0.2,0-0.2,0c0-1,0-2,0-3c0.6,0,1.3-0.1,1.9,0.1c0.5,0.2,0.5,0.8,0.2,1.3
		C397.5,93.1,397.3,93.2,397.1,93.4z M396,91.5c-0.1,0.8-0.3,1.4,0.5,1.3c0.3,0,0.6-0.4,0.9-0.6C397,92.1,396.6,91.9,396,91.5z"/>
</g>
</svg>
