<?xml version="1.0" encoding="utf-8"?>
<!-- Generator: Adobe Illustrator 22.1.0, SVG Export Plug-In . SVG Version: 6.00 Build 0)  -->
<svg version="1.1" id="Слой_1" xmlns="http://www.w3.org/2000/svg" xmlns:xlink="http://www.w3.org/1999/xlink" x="0px" y="0px"
	 viewBox="0 0 400 200" style="enable-background:new 0 0 400 200;" xml:space="preserve">
<style type="text/css">
	.st0{fill:#191E1F;}
</style>
<g>
	<path class="st0" d="M170.6,65.6c0.6,3.6,1.2,7.4,2,11.2c0.4,1.9,1.5,3.6,2,5.5c0.4,1.8,0.6,3.7,0.6,5.5c0,1.2-0.4,2.3-0.7,4
		c1.3-0.4,2.2-0.7,3-1c2.2,3.6,0.1,6.8-8,11.9c-0.3-0.9-0.7-1.8-1-2.6c-2.3,0-4.3,0-6.9,0c0,2.1,0,4.1,0,6.1c0,3.5-2.4,6.3-5.8,6.6
		c-2.2,0.2-4.5,0-7.3,0c0-2.8,0-5.6,0-8.3c0-4.7,0-4.7-4.8-4.6c-0.4,0-0.9,0.1-1.9,0.2c0,5.9,0,11.8,0,17.6c0,2.6-0.2,5.2-4.2,5.7
		c-0.7-6.2-5.8-8.1-10.7-10.2c-1-0.4-2.2-0.8-2.9-1.6c-0.8-0.9-1.6-2.2-1.4-3.3c0.1-0.9,1.5-1.9,2.5-2.2c1.1-0.3,2.5-0.2,3.6,0.2
		c5.1,1.8,5,1.9,7.8-2.9c-2.6-3.8-8.1-5.4-13.4-4c-4.7,1.3-8.9,5.2-8.9,9.3c-0.1,3.4,1.8,6.2,4.8,7.9c2.9,1.7,5.9,3,8.7,4.8
		c1,0.7,1.6,2.1,2.3,3.2c-1.1,0.7-2.3,2.2-3.4,2.1c-2.5-0.2-5.1-0.7-7.2-1.9c-2.4-1.4-3,0.2-3.9,1.4c-1.1,1.4-2.3,3,0,4.5
		c1.2,0.8,2.4,1.6,3.7,2.4c-3.2,1.7-6.3,3.2-9.3,4.8c-0.4,0.2-0.7,0.8-1,1.2c2.6,2.1,5.1,4.1,7.5,6.2c2,1.8,2,3.6-0.3,5.2
		c-2,1.3-4.1,2.8-6.3,3.8c-4.4,2-8.9-1.1-9.4-6.2c-0.1-1.3-0.3-2.8-1.1-3.7c-3.3-3.7-3.4-3.7-0.4-7.3c-0.1-0.2-0.2-0.5-0.3-0.5
		c-3.7,0-7.1-0.3-6.9-5.5c0-0.7-1.5-1.8-2.5-2.2c-1.3-0.6-2.8-0.8-4.1-1.2c-3.4-1.2-3.7-2.8-2.2-6c1.8-3.8,3.5-7.7,4.5-11.7
		c0.7-3,1.1-6.3-2.2-8.7c-1.1-0.8-1.1-3-1.7-4.6c-2.3,0.9-4.7,1.8-6.4,2.5c-0.7-1.6-0.9-2.8-1.6-3.5c-1.4-1.3-3.2-2.3-4.8-3.6
		c-1.9-1.5-2.1-3.1-1.2-5.5c0.8-2.2,0.4-4.9,0.4-7.4c0-2.6,0.1-5,2.3-6.9c1.3-1.1,2.1-2.6,3.2-3.8c2-2.2,4.2-4.4,6.4-6.7
		c0.5,0.8,0.8,1.4,1.3,2.4c1.3-1.1,2.7-1.9,3.7-3.1c3.7-4.4,7.5-8.5,13.4-9.8c0.4-0.1,0.9-0.4,1.1-0.7c5.1-7.7,13-6.2,20.4-6
		c0.5,0,0.9,0.6,1.4,0.8c1.8,0.6,3.6,1.8,5.4,1.7c4.3-0.1,8.7-1.1,13-1.1c2.2,0,4.6,1.2,6.5,2.3c2.3,1.3,4.2,3.3,6.2,4.9
		c0.5,0.4,1,1.1,1.6,1.1c2.5,0.1,4.7,2.1,6.4,2.3c4.4,0.6,4.1,3.9,5.5,6.3c0.5,0.8,0.6,1.7,1.2,2.4
		C168.9,65.4,169.7,65.4,170.6,65.6z"/>
	<path class="st0" d="M253,116.2c-0.3-9.4,7.8-16.9,17.3-16.6c9.6,0.3,16.7,7.6,16.4,17.6c-0.2,9.3-8,16.1-16.9,15.9
		C261.1,133.1,253,127.1,253,116.2z M281.4,116.1c0-6.9-4.7-11.5-11.8-11.5c-6.6,0-11.4,4.9-11.4,11.6c0,7.7,5.2,11.6,11.6,11.8
		C275.9,128.2,282,123,281.4,116.1z"/>
	<path class="st0" d="M225.8,131.7c-4.4,1.3-7,0-8.4-4c-0.8-2.3-2-4.5-3.6-6.3c-0.9-1.1-2.9-1.6-4.5-1.6c-0.6,0-1.5,2-1.7,3.2
		c-0.3,1.6,0,3.3-0.1,5c-0.1,4.2-0.1,4.2-4.6,3.9c0-10.1,0-20.2,0-31c5.1,0.3,10.4-0.1,15.1,1.2c6.4,1.8,8,10.5,2.8,14.8
		c-2.5,2.1-2,3.4-0.6,5.5C222.3,125.4,223.9,128.5,225.8,131.7z M211.4,116c4.6,0,7.2-2.2,7.4-6.1c0.1-3.2-3-5.1-7.9-5.3
		c-3.6-0.2-3.5,2-3.5,4.5C207.5,116,207.5,116,211.4,116z"/>
	<path class="st0" d="M318.1,124.5c0.4,6.1-2.6,8.9-9.9,8.6c-6.2-0.3-13.8-3.4-16.1-12.5c-2-7.6,1-16.5,7.1-19.9
		c5.4-3.1,11-3.1,16.5-0.2c2.8,1.5,2.8,1.7,2.5,8.2c-6.3-4.4-12.7-6.8-18.6,0c-3.8,4.4-3.7,10.6-0.6,14.7
		C303.2,128.8,307.2,129,318.1,124.5z"/>
	<path class="st0" d="M331.3,119.3c-0.3,3.7-0.8,6.3-0.6,8.9c0.2,3.7-1.4,4.5-4.8,3.6c0-10,0-20.1,0-30.4c1.4,0,2.8,0,4.4,0
		c0.2,3.3,0.3,6.6,0.5,9.8c0.3,0.1,0.6,0.2,1,0.4c2.1-2.3,4.5-4.5,6.4-7c2.6-3.5,6-4,10.5-3c-4.1,4-7.8,7.9-11.8,11.5
		c-2.1,1.9-1.8,3.1-0.1,4.9c3.5,3.7,7,7.4,10.4,11.2c0.6,0.7,1.1,1.5,1.9,2.5c-4,0.8-6.9,0.7-9.3-2.6
		C337.4,125.9,334.6,123,331.3,119.3z"/>
	<path class="st0" d="M176.3,101.4c6.3,0,12.1,0,18,0c1,2.5-0.1,3.4-2.3,3.5c-2.6,0.1-5.1,0.4-7.7,0.3c-2.1,0-3.1,0.6-2.9,2.9
		c0.2,1.8,0,3.6,0,6c2.7,0,5.2,0.1,7.7,0c2.9-0.2,3.6,1,2.6,4.1c-2.3,0-4.7,0.1-7.1,0c-2.2-0.1-3.2,0.5-3.2,3c0.2,8.4-0.8,6.9,6.8,7
		c2.2,0,4.4,0,7,0c0.1,1.4,0.1,2.5,0.2,3.8c-6.5,0-12.7,0-19.1,0C176.3,121.8,176.3,111.8,176.3,101.4z"/>
	<path class="st0" d="M231.6,101.3c1.6,0,2.9,0,4.8,0c0,2.7,0,5.5,0,8.2c0,5,0.2,10.1,0,15.1c-0.1,2.9,1,3.7,3.7,3.5
		c2.3-0.2,4.7,0.1,7-0.1c2.9-0.2,4,0.8,3,4c-3,0-6.1,0-9.2,0c-3,0-6,0-9.4,0C231.6,121.8,231.6,111.7,231.6,101.3z"/>
	<path class="st0" d="M163.1,131.9c0-3.7-0.1-7.1,0-10.5c0.1-2.5-1-3.4-3.4-3.3c-2.6,0.1-5.2,0-7.9-0.3c2.6-1.9,4.7-4.2,8.3-3.7
		c0.9,0.1,2.8-1.2,2.7-1.8c-0.2-3.3,2.2-4.2,5-5.8c0,3.2,0,5.9,0,8.6c0,4.4,0,8.7,0,13.1C168,132.3,168,132.3,163.1,131.9z"/>
	<path class="st0" d="M147,132c-1.6,0-2.9,0-4.2,0c-0.8-10.1-0.8-10.2,4.2-11.1C147,124.5,147,128.1,147,132z"/>
	<path class="st0" d="M123.9,132.1c4.2-2.1,7.9-3.9,12-6C133.5,131.3,129.4,133.4,123.9,132.1z"/>
</g>
</svg>
